<?xml version="1.0" standalone="no"?>
<!DOCTYPE svg PUBLIC "-//W3C//DTD SVG 20010904//EN"
 "http://www.w3.org/TR/2001/REC-SVG-20010904/DTD/svg10.dtd">
<svg version="1.0" xmlns="http://www.w3.org/2000/svg"
 width="1920.000000pt" height="1080.000000pt" viewBox="0 0 1920.000000 1080.000000"
 preserveAspectRatio="xMidYMid meet">

<g transform="translate(0.000000,1080.000000) scale(0.100000,-0.100000)"
fill="#000000" stroke="none">
<path d="M0 5400 l0 -5400 9600 0 9600 0 0 5400 0 5400 -4753 0 c-4558 0
-4753 -1 -4768 -18 -30 -35 -31 -42 -7 -38 13 3 31 5 41 5 9 1 17 8 17 17 0 9
6 14 12 11 7 -2 12 -13 10 -24 -2 -12 4 -23 14 -27 15 -6 14 -8 -5 -25 -11
-10 -18 -21 -15 -24 9 -8 37 4 51 22 6 9 14 13 18 10 7 -8 -14 -99 -27 -116
-13 -16 6 -25 37 -17 26 6 26 7 5 21 -21 15 -27 42 -10 44 43 6 70 2 70 -8 0
-7 5 -13 11 -13 5 0 7 -5 3 -11 -3 -6 -15 -9 -25 -6 -23 6 -27 -28 -4 -37 8
-3 15 -1 15 4 0 6 7 10 16 10 9 0 18 9 21 20 5 20 15 25 26 13 4 -3 2 -12 -4
-19 -8 -9 -5 -15 10 -24 12 -6 21 -15 21 -21 0 -6 -4 -8 -8 -5 -9 5 -39 -11
-32 -17 12 -10 90 -16 90 -7 0 5 5 10 10 10 6 0 10 -7 10 -15 0 -8 8 -15 18
-15 10 0 25 -11 32 -25 9 -16 22 -25 38 -25 21 0 23 -2 12 -16 -11 -12 -10
-18 3 -32 16 -15 17 -15 17 1 0 9 3 17 8 17 13 -1 62 -73 62 -91 0 -10 12 -27
26 -38 21 -16 23 -23 15 -40 -18 -32 -13 -38 37 -48 30 -5 47 -13 48 -23 1
-39 16 -60 49 -66 25 -4 36 -13 44 -34 5 -16 19 -33 30 -40 12 -6 21 -16 21
-23 0 -19 38 -47 55 -41 10 4 15 0 15 -10 0 -9 -4 -16 -10 -16 -5 0 -10 -4
-10 -8 0 -4 9 -8 20 -8 11 0 20 5 20 10 0 22 59 -61 70 -99 7 -22 16 -48 21
-57 5 -10 6 -25 2 -34 -4 -12 -3 -15 5 -10 7 4 12 14 12 22 0 8 7 14 15 14 17
0 20 -16 5 -25 -5 -3 -10 -17 -10 -30 0 -17 6 -25 22 -27 14 -2 25 -13 29 -28
4 -14 7 -19 8 -12 1 6 6 12 12 12 6 0 8 -9 4 -20 -5 -14 -2 -20 10 -20 9 0 13
5 10 10 -3 5 -1 10 5 10 7 0 9 -8 5 -19 -7 -24 4 -51 21 -51 8 0 14 -6 14 -12
0 -9 3 -8 10 2 7 12 11 13 22 2 11 -11 10 -15 -4 -23 -10 -6 -18 -15 -18 -21
0 -7 5 -6 15 2 12 10 15 10 15 -1 0 -11 2 -11 10 1 9 13 14 10 36 -15 13 -16
27 -42 31 -57 3 -16 10 -28 15 -28 5 0 8 -6 7 -12 -1 -7 1 -21 6 -31 4 -10 5
-33 2 -52 -6 -35 4 -45 44 -45 10 0 20 -4 20 -10 4 -33 29 -100 37 -99 19 3
31 -3 58 -29 33 -33 54 -66 54 -85 0 -7 11 -24 26 -37 18 -18 24 -31 20 -50
-3 -14 -3 -19 1 -12 3 9 11 3 24 -18 11 -17 17 -35 14 -41 -4 -5 0 -9 8 -9 8
0 25 -16 38 -35 13 -19 31 -35 39 -35 13 0 13 -2 1 -9 -8 -5 -21 -7 -29 -3
-10 3 -13 0 -10 -9 7 -23 46 -23 60 0 15 24 28 27 28 7 0 -15 21 -26 51 -26
12 0 19 -7 19 -19 0 -15 10 -20 56 -26 30 -3 57 -12 60 -19 3 -7 20 -19 39
-26 36 -14 40 -32 5 -23 -12 3 -20 0 -20 -6 0 -7 5 -9 11 -5 6 3 15 1 19 -5 4
-7 14 -13 22 -15 8 -1 27 -10 42 -20 18 -11 37 -15 52 -12 19 5 30 0 49 -21
13 -16 25 -22 25 -15 0 6 4 12 9 12 5 0 9 -19 9 -41 1 -48 15 -70 34 -51 19
19 26 14 24 -13 -1 -18 -8 -28 -23 -32 -13 -3 -23 -9 -23 -13 0 -13 44 -20 51
-9 4 8 9 8 14 -1 4 -6 13 -9 21 -6 8 3 14 -1 14 -9 0 -8 6 -15 13 -15 8 0 8
-3 -2 -9 -8 -5 -19 -7 -26 -5 -6 3 -19 -13 -27 -35 -15 -36 -15 -39 1 -33 27
10 81 56 81 70 0 6 4 12 9 12 15 0 23 -18 11 -25 -19 -12 -11 -45 11 -45 12 0
23 -8 26 -20 3 -11 11 -20 19 -20 7 0 11 -6 8 -14 -3 -8 -1 -17 5 -21 6 -3 11
1 11 10 0 9 5 13 11 10 6 -4 8 -13 5 -21 -3 -8 1 -17 9 -20 8 -4 22 -21 31
-40 9 -19 20 -31 25 -28 5 3 14 -8 20 -24 5 -16 21 -34 34 -40 27 -13 32 -27
13 -35 -8 -3 -6 -6 4 -6 31 -2 42 -38 23 -78 -14 -29 -15 -37 -4 -44 9 -5 4
-13 -19 -26 -18 -10 -32 -26 -32 -35 0 -22 28 -24 36 -3 9 23 26 18 19 -6 -5
-15 -1 -25 13 -35 11 -7 34 -36 52 -63 65 -103 51 -292 -26 -321 -13 -5 -29
-21 -36 -35 -6 -14 -15 -25 -20 -25 -4 0 -8 -9 -8 -21 0 -11 -15 -52 -34 -90
-44 -89 -53 -127 -32 -135 12 -4 14 -13 9 -33 -6 -23 -5 -25 10 -12 9 7 14 17
11 22 -3 5 2 9 11 9 13 0 16 -6 11 -25 -3 -14 -9 -36 -12 -50 -5 -19 -2 -25
10 -25 10 0 16 -9 16 -25 0 -14 5 -25 10 -25 6 0 10 -7 10 -16 0 -10 -6 -14
-15 -10 -8 3 -15 1 -15 -5 0 -6 9 -13 21 -16 13 -4 18 -11 14 -21 -3 -10 6
-26 25 -43 16 -15 30 -37 30 -48 0 -12 5 -21 11 -21 5 0 8 3 5 8 -2 4 1 18 8
31 l13 24 27 -35 c14 -19 26 -44 26 -56 0 -11 4 -23 10 -27 5 -3 7 -12 3 -20
-3 -9 0 -22 7 -30 7 -8 10 -28 8 -44 -3 -18 0 -27 6 -25 16 6 36 -31 29 -55
-3 -11 -9 -18 -14 -16 -4 3 -6 -9 -4 -27 2 -18 9 -34 15 -36 5 -2 8 -8 4 -13
-3 -5 -1 -9 5 -9 6 0 8 -7 5 -15 -4 -10 0 -15 13 -15 24 0 43 -18 37 -35 -3
-7 -1 -16 5 -20 6 -3 11 0 11 7 0 10 2 10 9 -1 10 -15 -8 -41 -28 -41 -6 0
-11 -7 -11 -15 0 -8 5 -15 10 -15 6 0 10 5 10 10 0 6 6 10 14 10 8 0 17 6 19
13 3 7 6 5 6 -5 1 -9 -6 -21 -15 -26 -14 -8 -14 -10 0 -21 14 -12 14 -17 1
-49 -14 -32 -14 -37 1 -53 9 -10 13 -22 10 -27 -3 -5 3 -17 14 -27 10 -9 16
-23 13 -31 -3 -8 0 -14 7 -14 6 0 8 -4 5 -10 -3 -5 3 -10 14 -10 20 0 23 -4
25 -40 1 -8 8 -16 16 -16 32 -3 34 -5 18 -15 -10 -6 -15 -16 -11 -26 6 -14 8
-14 20 3 11 15 13 15 13 2 0 -8 -7 -21 -15 -28 -11 -9 -12 -17 -4 -32 7 -13 7
-18 1 -14 -6 3 -13 2 -16 -3 -3 -5 1 -11 9 -15 8 -3 15 -17 15 -31 0 -18 5
-25 19 -25 22 0 45 -25 36 -39 -3 -7 0 -8 9 -5 12 4 24 -13 50 -68 46 -98 78
-187 70 -199 -3 -6 -1 -15 4 -22 5 -7 8 -23 7 -37 -14 -118 -13 -180 1 -180 8
0 14 -10 14 -25 0 -18 7 -28 24 -35 31 -11 43 -30 19 -30 -17 -1 -17 -1 0 -11
10 -6 21 -8 24 -5 4 3 12 -2 19 -13 14 -19 8 -65 -7 -55 -5 3 -9 -2 -9 -10 0
-8 5 -18 10 -21 6 -3 10 -12 10 -18 0 -8 -3 -8 -9 2 -5 8 -11 9 -15 3 -4 -6 2
-16 11 -22 13 -8 14 -13 6 -16 -9 -4 -7 -11 7 -26 10 -11 23 -17 29 -13 10 6
13 0 15 -35 1 -8 8 -15 16 -15 8 0 20 -7 27 -16 13 -17 6 -62 -8 -53 -5 3 -9
-4 -9 -15 0 -12 -4 -21 -10 -21 -5 0 -10 -5 -10 -10 0 -7 6 -7 19 -1 16 9 17
7 13 -14 -2 -13 -12 -26 -21 -28 -13 -4 -13 -5 2 -6 10 0 15 -6 12 -11 -3 -6
2 -13 12 -17 29 -11 45 -30 30 -36 -9 -4 -8 -8 3 -16 10 -7 16 -7 21 0 4 7 8
5 12 -4 3 -9 -4 -19 -18 -27 -28 -15 -38 -45 -20 -60 8 -6 12 -17 9 -24 -3 -7
2 -19 12 -26 15 -13 14 -15 -3 -21 -17 -7 -17 -8 0 -8 10 -1 15 -6 12 -11 -3
-6 5 -14 18 -19 31 -12 44 -31 21 -31 -25 0 -9 -13 19 -15 32 -2 49 -52 23
-70 -14 -10 -17 -23 -14 -49 2 -20 0 -36 -4 -36 -19 0 -19 -32 0 -53 24 -25
42 -85 23 -73 -12 8 -12 -28 0 -49 4 -5 9 -22 13 -37 5 -21 2 -30 -14 -38 -11
-6 -20 -18 -20 -27 0 -14 3 -13 26 2 32 21 43 12 19 -15 -10 -11 -13 -20 -7
-20 6 0 13 -8 15 -17 4 -16 5 -16 6 0 1 23 26 17 26 -6 0 -8 4 -19 8 -23 11
-11 9 -26 -3 -19 -6 3 -10 -4 -10 -16 0 -23 30 -54 60 -64 10 -3 23 -18 30
-33 6 -15 18 -40 26 -55 9 -15 17 -38 18 -50 2 -12 9 -35 15 -51 6 -16 13 -46
14 -67 1 -21 6 -41 10 -45 4 -4 7 -26 7 -48 0 -23 4 -47 9 -55 6 -8 6 -24 0
-38 -7 -19 -2 -32 27 -70 19 -25 38 -59 41 -75 3 -15 10 -31 14 -34 5 -3 7 -9
4 -14 -6 -9 4 -59 27 -134 10 -33 10 -39 -5 -48 -9 -5 -17 -16 -17 -24 0 -8
-4 -13 -9 -9 -5 3 -12 1 -16 -5 -3 -6 1 -13 9 -16 9 -3 16 -13 16 -21 0 -8 -3
-12 -8 -9 -15 9 -45 -23 -38 -41 7 -17 8 -17 22 1 12 18 19 15 15 -7 0 -4 4
-7 10 -7 6 0 9 -14 7 -33 -2 -26 -7 -31 -25 -29 -32 4 -36 -13 -7 -27 20 -9
30 -9 40 0 11 9 14 8 14 -4 0 -8 7 -17 15 -21 8 -3 15 -15 15 -26 0 -11 5 -20
10 -20 6 0 10 -7 10 -17 0 -15 -2 -15 -19 1 -12 11 -20 13 -23 6 -2 -6 -17
-11 -35 -13 -39 -3 -33 -14 13 -23 28 -5 33 -10 29 -25 -5 -13 -1 -19 10 -19
8 0 18 -7 21 -15 6 -14 8 -13 19 1 14 20 35 11 35 -16 0 -13 5 -17 14 -14 20
8 66 -64 70 -107 2 -19 6 -41 9 -49 4 -8 9 -26 11 -40 3 -14 11 -40 18 -58 11
-30 11 -35 -4 -46 -19 -14 -21 -10 45 -103 15 -22 29 -56 31 -74 2 -19 6 -42
10 -51 4 -9 4 -49 -1 -88 -9 -64 -8 -72 8 -81 10 -5 21 -25 25 -44 6 -36 24
-49 24 -17 0 9 5 24 10 32 8 13 11 12 25 -5 28 -35 55 -102 49 -120 -4 -10 -1
-20 6 -25 10 -6 10 -21 1 -74 -8 -46 -9 -72 -1 -86 6 -10 9 -25 8 -32 -2 -7 4
-14 12 -14 8 -1 19 -2 24 -3 6 0 -3 -11 -20 -23 -16 -13 -30 -30 -32 -38 -2
-8 -8 -16 -13 -18 -5 -2 -9 -8 -9 -13 0 -4 7 -6 15 -3 9 4 15 0 15 -10 0 -9
-5 -16 -11 -16 -8 0 -8 -5 1 -15 10 -12 9 -16 -4 -21 -9 -3 -16 -13 -16 -21 0
-8 -5 -11 -10 -8 -6 3 -7 17 -4 31 7 26 -5 31 -24 12 -10 -10 -15 -10 -21 1
-13 20 -33 4 -22 -18 6 -10 6 -23 1 -31 -6 -10 -4 -20 6 -31 14 -16 13 -19
-14 -34 -19 -12 -28 -24 -25 -35 7 -25 -47 -35 -65 -12 -11 14 -14 15 -21 3
-5 -8 -16 -11 -26 -8 -9 4 -14 11 -11 16 10 15 -39 42 -52 29 -7 -7 -15 -8
-19 -4 -5 4 0 13 10 20 22 17 22 29 -3 51 -16 15 -22 15 -35 5 -12 -10 -15
-10 -15 0 0 8 -8 10 -21 7 -17 -5 -20 -2 -16 14 3 12 1 17 -6 12 -6 -4 -8 0
-4 10 3 9 -3 27 -14 41 -11 14 -18 30 -14 35 3 5 1 12 -4 16 -6 3 -8 12 -4 20
3 8 0 15 -7 15 -7 0 -10 6 -7 13 3 7 -1 21 -9 32 -18 24 -18 35 1 35 22 0 19
8 -21 52 -23 26 -34 47 -31 59 3 12 0 19 -9 19 -8 0 -14 5 -14 11 0 5 5 7 10
4 6 -3 10 -1 10 4 0 6 -6 11 -13 11 -14 0 -39 58 -31 71 3 5 0 9 -6 9 -7 0 -9
8 -5 21 5 16 4 19 -6 14 -9 -6 -11 -2 -7 13 4 12 0 26 -8 33 -19 16 -18 39 3
39 13 0 8 10 -19 37 -43 45 -72 105 -65 133 3 11 1 20 -3 20 -15 0 -22 40 -10
55 7 9 8 15 1 19 -7 5 -7 15 -1 32 13 33 13 34 -5 34 -8 0 -15 5 -15 10 0 6 8
10 18 10 16 1 16 1 0 11 -10 5 -18 19 -18 31 0 11 -11 33 -25 50 -14 16 -27
42 -30 56 -11 51 -29 107 -38 120 -6 8 -5 12 4 12 10 1 8 4 -3 11 -10 5 -18
14 -18 20 0 5 -10 29 -21 54 -12 25 -19 54 -16 65 3 11 1 20 -3 20 -9 0 -36
70 -32 84 2 4 -2 14 -8 21 -6 7 -12 45 -12 84 -1 51 -5 71 -15 71 -7 0 -13 5
-13 10 0 6 8 10 18 10 16 1 16 1 0 11 -10 5 -18 17 -18 26 0 29 -24 83 -36 83
-17 0 -26 33 -18 65 5 19 1 30 -12 40 -18 13 -18 14 -1 15 9 0 17 5 17 11 0 6
-8 8 -19 4 -14 -4 -20 0 -23 20 -3 14 -1 28 3 31 15 9 10 44 -6 44 -18 0 -20
20 -2 20 7 1 5 6 -6 14 -17 13 -17 18 -4 63 14 47 14 50 -6 66 -12 9 -26 17
-32 17 -5 0 1 -9 14 -19 13 -10 20 -21 14 -24 -20 -13 -36 13 -37 60 -1 33 -7
56 -19 67 -17 18 -21 29 -17 55 1 8 -3 17 -9 20 -6 4 -12 20 -14 37 -2 16 -7
35 -11 42 -4 7 -2 12 6 12 8 0 7 4 -4 11 -9 5 -15 16 -12 23 3 8 1 17 -5 20
-5 4 -13 28 -17 54 -3 26 -10 52 -15 58 -5 6 -9 34 -10 63 -1 28 -6 54 -11 57
-4 3 -8 20 -8 39 0 18 -6 36 -12 38 -10 4 -9 8 2 16 12 8 12 11 1 11 -7 0 -11
6 -8 14 3 8 -1 20 -9 27 -10 8 -14 28 -13 59 2 37 -3 54 -23 81 -28 38 -54
144 -45 188 4 21 1 33 -13 46 -11 10 -23 34 -26 54 -4 20 -10 41 -14 46 -4 6
-13 32 -19 59 -7 27 -19 58 -27 70 -19 27 -18 50 1 42 8 -3 15 -1 15 4 0 6
-11 10 -25 10 -26 0 -34 15 -12 23 7 3 4 6 -7 6 -12 1 -16 6 -12 17 3 8 0 25
-8 37 -19 31 -29 77 -16 77 8 0 7 5 0 18 -37 60 -47 82 -59 122 -7 25 -17 53
-22 63 -6 12 -5 17 3 17 8 0 6 5 -4 11 -9 5 -15 16 -12 23 3 8 1 17 -5 21 -15
9 -14 42 1 47 10 4 10 10 1 31 -7 14 -10 43 -7 64 5 35 4 36 -8 16 -19 -32
-34 -17 -48 49 -9 38 -18 58 -30 61 -10 3 -21 19 -25 38 -4 19 -14 44 -22 56
-8 12 -12 26 -9 32 3 5 -2 12 -11 15 -15 6 -15 8 -3 16 8 6 10 10 5 10 -12 0
-33 65 -40 118 -2 18 -15 49 -29 67 -14 19 -26 42 -26 52 0 11 -10 39 -21 64
-12 24 -23 51 -24 59 -1 8 -5 24 -10 34 -5 11 -9 34 -9 52 -1 18 -3 31 -5 29
-6 -6 -41 67 -36 75 3 4 -4 10 -15 13 -13 3 -20 14 -20 30 0 14 -4 29 -10 32
-5 3 -10 15 -10 26 0 10 -4 19 -10 19 -14 0 -12 27 3 33 7 3 5 6 -5 6 -10 1
-18 6 -18 12 0 6 7 8 16 5 12 -5 15 -2 10 10 -3 8 -6 20 -6 25 0 5 -9 9 -20 9
-11 0 -20 5 -20 10 0 6 7 10 15 10 9 0 -6 21 -35 49 -29 28 -50 58 -50 70 0
12 -4 21 -10 21 -5 0 -10 5 -10 11 0 5 5 7 10 4 6 -3 10 -2 10 4 0 5 -3 11 -7
13 -12 5 -53 91 -53 110 0 9 -4 20 -10 23 -5 3 -10 14 -10 24 0 19 -39 61 -57
61 -5 0 -18 -9 -28 -20 -12 -13 -22 -17 -28 -11 -5 5 -16 7 -23 4 -8 -3 -14 0
-14 6 0 6 -7 11 -15 11 -8 0 -15 -7 -15 -15 0 -8 7 -15 16 -15 8 0 12 -5 8
-11 -4 -8 -9 -8 -17 0 -17 17 -27 13 -27 -9 0 -11 -4 -20 -9 -20 -5 0 -23 -13
-41 -30 -18 -16 -38 -30 -45 -30 -7 0 -16 -8 -19 -17 -6 -15 -8 -15 -16 -3
-14 22 -12 30 5 24 10 -4 15 0 15 11 0 16 -2 16 -25 1 -33 -22 -44 -20 -54 7
-12 31 -77 65 -94 48 -9 -9 -9 -14 3 -21 8 -6 21 -8 27 -5 7 2 20 -6 28 -19
18 -27 10 -90 -11 -82 -7 3 -15 -2 -18 -10 -3 -8 -12 -14 -21 -14 -17 0 -21
25 -5 35 6 4 8 11 4 16 -4 6 -13 4 -24 -6 -10 -9 -24 -13 -35 -9 -12 5 -16 4
-11 -4 4 -6 1 -20 -5 -30 -11 -17 -14 -18 -29 -4 -10 8 -16 22 -13 31 3 12 -2
17 -16 17 -12 0 -20 -5 -19 -11 4 -17 -22 -55 -36 -55 -8 0 -17 10 -20 23 -7
21 -7 21 -15 2 -6 -14 -4 -21 5 -23 19 -5 17 -15 -6 -35 -23 -19 -26 -43 -7
-50 10 -4 10 -7 0 -18 -10 -10 -16 -10 -25 -1 -16 16 -28 15 -28 -3 0 -9 -9
-15 -22 -15 -12 0 -30 -8 -41 -17 -18 -17 -19 -17 -32 0 -6 9 -21 17 -31 16
-11 0 -13 -3 -6 -6 22 -9 13 -33 -13 -33 -33 0 -40 3 -39 15 1 6 -7 11 -18 11
-11 0 -17 -5 -14 -13 6 -15 -20 -18 -29 -3 -11 17 -51 11 -71 -11 -18 -20 -18
-21 0 -31 15 -8 16 -12 5 -19 -8 -5 -22 -6 -33 -3 -10 4 -22 1 -26 -6 -4 -6
-27 -13 -50 -14 -24 -1 -46 -8 -48 -14 -2 -7 -8 -12 -13 -12 -4 0 -6 7 -3 15
4 10 0 15 -10 15 -9 0 -19 -7 -22 -15 -9 -22 -24 -18 -24 6 0 16 -4 19 -22 14
-13 -4 -32 -18 -43 -30 -23 -27 -60 -40 -70 -25 -10 16 -35 12 -35 -7 0 -9 -3
-13 -6 -10 -4 3 -16 0 -28 -8 -27 -20 -45 -19 -68 2 -19 17 -20 16 -36 -4 -28
-36 -66 -45 -90 -23 -11 11 -23 28 -27 40 -6 20 -25 28 -25 10 0 -5 4 -10 9
-10 13 0 7 -48 -8 -63 -9 -9 -10 -4 -5 21 4 21 3 32 -5 32 -6 0 -11 -6 -11
-14 0 -19 -42 -44 -60 -37 -8 3 -15 13 -15 21 0 9 -11 15 -26 17 -22 1 -28 -4
-34 -30 -5 -22 -9 -27 -12 -14 -2 9 -11 17 -19 17 -17 0 -17 5 -4 31 7 11 7
19 1 19 -5 0 -11 -6 -14 -12 -3 -10 -7 -10 -20 0 -13 11 -19 11 -36 0 -15 -9
-26 -10 -38 -2 -27 15 -56 6 -50 -17 3 -10 1 -19 -3 -19 -15 0 -39 42 -33 58
5 11 2 14 -9 9 -18 -6 -25 5 -44 73 -19 71 7 200 41 200 7 0 20 3 28 6 10 3
18 -2 22 -15 7 -22 25 -29 25 -10 0 6 11 24 25 41 20 23 23 33 15 49 -10 18
-3 24 23 20 4 0 7 3 7 9 0 5 12 10 28 10 15 0 41 7 57 16 17 8 44 16 60 16 17
0 73 12 125 25 52 14 115 29 140 34 25 5 62 13 83 18 30 7 41 6 53 -7 12 -11
18 -12 23 -3 11 18 71 32 91 21 10 -5 21 -6 26 -2 5 4 3 0 -4 -9 -6 -9 -9 -19
-5 -22 3 -4 -2 -7 -12 -7 -14 0 -15 -3 -5 -15 16 -19 35 -5 44 30 4 14 11 25
16 25 9 0 72 39 97 60 16 14 30 13 37 -2 3 -9 8 -8 16 5 7 11 23 17 48 16 20
0 31 -3 25 -6 -24 -9 -13 -20 17 -15 21 3 30 0 30 -9 0 -8 9 1 20 19 20 33 34
40 45 22 4 -6 11 -7 17 -4 6 4 5 9 -3 15 -10 6 -7 11 11 19 14 6 45 23 70 39
49 32 70 38 70 19 0 -6 9 -2 20 10 12 12 28 22 37 22 9 0 36 17 61 37 51 41
101 69 142 78 16 3 49 25 75 47 53 47 104 75 152 84 39 7 40 15 11 54 -12 16
-19 33 -15 36 4 4 -1 13 -11 20 -14 11 -14 13 -2 14 12 1 12 2 -1 10 -9 5 -20
26 -23 45 -5 22 -11 33 -18 29 -7 -5 -9 0 -6 14 4 12 3 20 -1 17 -11 -6 -31
40 -31 70 0 14 -4 25 -10 25 -5 0 -10 -4 -10 -10 0 -5 -4 -10 -10 -10 -14 0
-12 27 3 33 7 4 6 6 -4 6 -11 1 -21 18 -30 48 -7 26 -14 42 -17 35 -5 -16 -22
-15 -22 2 0 7 -13 30 -30 51 -33 41 -38 60 -15 51 9 -3 15 0 15 9 0 9 -8 14
-22 12 -19 -2 -26 6 -40 48 -9 28 -17 46 -18 40 -1 -18 -24 29 -37 75 -7 25
-12 62 -13 83 0 20 -5 37 -11 37 -6 0 -8 -9 -4 -20 3 -11 2 -20 -3 -20 -14 0
-56 49 -49 57 4 3 -2 12 -13 20 -11 8 -20 25 -20 38 0 13 -4 27 -10 30 -5 3
-10 14 -10 24 0 24 -111 134 -158 156 -20 10 -45 22 -54 26 -10 5 -28 9 -42 9
-13 0 -29 7 -36 15 -8 10 -16 12 -19 6 -7 -11 -52 2 -106 30 -16 9 -36 14 -43
12 -7 -3 -12 -1 -11 4 1 4 1 20 0 36 -1 30 -21 38 -21 8 0 -25 -20 -38 -30
-21 -4 7 -17 10 -29 7 -11 -3 -25 1 -32 10 -7 8 -8 13 -3 12 5 -1 16 -1 24 0
11 1 11 5 -4 19 -14 13 -20 14 -23 4 -8 -21 -53 -34 -69 -21 -11 9 -15 8 -20
-5 -8 -20 -28 -21 -44 -1 -7 8 -17 12 -24 8 -6 -4 -33 -8 -61 -9 -46 -2 -50 0
-50 22 0 16 6 24 18 24 9 0 17 4 17 8 0 4 -10 8 -22 8 -14 0 -25 -9 -32 -28
-9 -25 -14 -28 -40 -22 -19 4 -31 2 -37 -7 -4 -7 -12 -10 -16 -5 -4 5 -2 11 5
13 6 3 12 14 12 26 0 16 -6 22 -25 23 -20 2 -25 -3 -25 -21 0 -13 -4 -27 -10
-30 -5 -3 -10 1 -10 9 0 9 -5 16 -11 16 -7 0 -20 10 -30 21 -13 15 -24 19 -36
14 -10 -5 -26 -7 -37 -6 -10 2 -15 -2 -12 -7 3 -6 0 -12 -8 -15 -8 -3 -20 -18
-28 -34 -11 -24 -20 -28 -61 -31 -34 -2 -52 2 -64 13 -9 9 -19 12 -22 7 -3 -5
-17 -15 -30 -22 -19 -10 -25 -10 -32 1 -9 15 -12 28 -10 42 1 5 -10 0 -23 -10
-14 -10 -26 -23 -26 -30 0 -6 -8 -13 -18 -15 -21 -4 -103 23 -117 38 -5 6 -20
14 -32 17 -18 4 -23 1 -23 -15 0 -14 -5 -18 -15 -15 -8 4 -17 2 -20 -2 -2 -5
-13 -11 -24 -14 -13 -3 -18 -1 -14 9 8 21 -6 37 -22 24 -8 -7 -15 -7 -19 -1
-7 10 -46 3 -46 -9 0 -5 9 -6 20 -3 22 6 25 -3 10 -27 -8 -13 -11 -12 -23 5
-14 19 -15 19 -56 1 -33 -15 -39 -22 -30 -33 14 -17 12 -19 -28 -26 -18 -4
-35 -2 -39 4 -4 7 -12 4 -24 -6 -16 -15 -18 -14 -24 2 -7 17 -8 17 -21 -1 -15
-19 -35 -14 -35 10 0 10 -5 9 -20 -6 -11 -11 -20 -25 -20 -32 0 -6 -3 -8 -6
-5 -4 3 -16 0 -28 -8 -32 -23 -48 -18 -83 22 -23 28 -32 33 -33 21 0 -10 -4
-18 -10 -18 -5 0 -25 -14 -45 -32 -25 -21 -32 -33 -24 -38 6 -4 8 -13 5 -19
-11 -17 -26 -13 -26 7 0 13 -5 12 -23 -10 -18 -21 -32 -27 -79 -30 -37 -3 -56
-1 -55 6 1 6 -10 12 -25 14 -16 2 -28 7 -28 12 0 4 -8 11 -17 15 -15 5 -16 4
-5 -6 15 -16 16 -49 1 -49 -15 0 -39 -26 -39 -43 0 -10 -15 -18 -42 -22 -24
-4 -49 -15 -56 -24 -11 -14 -12 -13 -7 7 9 31 -17 29 -41 -4 -26 -36 -67 -74
-79 -74 -6 0 -17 6 -24 13 -11 10 -12 8 -6 -12 6 -19 4 -23 -8 -18 -8 3 -23
-3 -32 -14 -33 -36 -78 -55 -103 -44 -12 5 -25 18 -28 28 -7 24 -27 10 -21
-15 5 -17 2 -19 -19 -14 -17 5 -24 2 -24 -9 0 -8 -4 -15 -10 -15 -14 0 -12 37
3 43 6 3 2 4 -11 4 -25 -1 -41 -35 -22 -47 8 -5 2 -14 -18 -29 -22 -15 -29
-27 -25 -41 5 -17 0 -20 -33 -21 -22 -1 -43 -1 -48 0 -17 3 -34 -20 -29 -39 4
-15 0 -20 -15 -20 -12 0 -24 -4 -27 -10 -11 -18 -35 -11 -35 10 0 11 -5 20
-11 20 -5 0 -7 -4 -4 -10 3 -6 -4 -10 -17 -10 -19 0 -20 -2 -8 -10 13 -9 12
-12 -4 -25 -25 -19 -35 -19 -42 0 -9 24 -67 -21 -59 -45 4 -13 -1 -22 -14 -29
-26 -14 -31 -14 -31 4 0 21 -12 19 -38 -6 -12 -11 -27 -17 -32 -14 -6 4 -10
-5 -10 -20 0 -18 -6 -29 -19 -32 -21 -5 -35 -29 -52 -90 -19 -66 -56 -104
-104 -107 -80 -5 -78 -4 -71 -32 6 -21 3 -25 -11 -22 -10 1 -23 -1 -29 -5 -7
-4 -17 0 -24 8 -10 12 -9 16 4 21 9 3 16 13 16 22 0 13 -6 10 -25 -10 -27 -30
-31 -44 -13 -50 13 -5 -3 -41 -18 -38 -9 3 -19 -12 -28 -42 -6 -20 -51 -25
-61 -8 -4 6 -12 7 -18 3 -7 -4 -23 -6 -36 -4 -14 2 -21 -1 -17 -8 4 -5 1 -19
-6 -30 -16 -26 -3 -39 22 -23 16 10 21 9 30 -8 9 -17 7 -22 -12 -29 -35 -14
-57 -45 -46 -65 6 -10 5 -16 -2 -16 -5 0 -10 -8 -10 -17 0 -13 -3 -14 -8 -6
-5 8 -16 -3 -32 -32 -14 -25 -30 -45 -38 -45 -7 0 -15 -7 -18 -15 -4 -8 -10
-13 -14 -10 -5 3 -8 -7 -6 -22 3 -33 -10 -54 -28 -47 -13 5 -29 -40 -18 -51
11 -11 0 -116 -15 -147 -22 -44 -59 -88 -68 -80 -3 4 -5 -6 -3 -22 2 -18 -2
-31 -11 -34 -10 -3 -12 0 -8 11 4 10 -1 17 -14 20 -17 5 -19 0 -18 -31 2 -55
8 -72 24 -66 9 4 17 -4 21 -23 4 -15 14 -38 21 -50 8 -12 12 -27 8 -33 -3 -5
-1 -10 5 -10 7 0 9 -7 6 -15 -3 -9 1 -41 9 -72 12 -45 12 -59 2 -71 -10 -13
-9 -15 7 -9 17 7 18 4 13 -26 -7 -43 0 -53 43 -64 25 -7 36 -16 38 -31 2 -13
14 -30 28 -38 13 -9 24 -23 24 -31 0 -11 7 -13 25 -9 21 5 25 3 25 -18 0 -21
6 -25 48 -33 39 -7 47 -12 48 -30 2 -34 20 -50 54 -48 34 2 38 -6 14 -30 -9
-9 -14 -19 -10 -22 3 -4 12 2 19 12 8 10 20 15 28 12 10 -4 10 -6 -3 -6 -11
-1 -15 -6 -12 -15 7 -18 34 -9 34 10 0 8 7 14 15 14 18 0 19 -12 3 -28 -12
-12 0 -16 40 -15 10 1 9 -4 -2 -22 -12 -18 -13 -25 -3 -33 16 -13 57 3 57 23
0 17 16 20 26 4 3 -6 1 -15 -6 -19 -9 -6 -7 -10 9 -15 11 -3 26 -3 33 1 8 5 9
2 5 -10 -5 -14 -3 -17 8 -13 8 4 17 2 21 -4 4 -6 11 -6 20 2 12 9 16 6 25 -20
9 -27 16 -32 38 -30 29 3 71 -16 71 -32 0 -6 -9 -13 -20 -16 -29 -8 -24 -18
10 -20 25 -2 30 2 31 20 1 21 1 21 7 2 6 -16 15 -20 47 -20 26 0 46 -6 58 -17
10 -10 26 -18 37 -18 10 0 26 -10 34 -22 9 -12 16 -17 16 -10 0 10 4 9 16 -2
8 -9 32 -16 53 -16 20 0 46 -7 57 -15 19 -14 18 -14 -3 -15 -13 0 -23 -4 -23
-9 0 -13 39 -21 64 -12 29 11 93 2 107 -15 6 -8 24 -14 40 -14 15 0 31 -5 34
-10 4 -6 11 -8 16 -5 5 4 9 1 9 -4 0 -11 35 -51 44 -51 3 0 12 7 21 17 11 10
19 12 23 6 4 -6 31 -14 60 -18 45 -6 56 -13 54 -35 0 -3 23 -6 52 -6 29 -1 71
-7 92 -14 37 -12 37 -14 16 -23 -24 -11 -31 -33 -8 -24 8 3 41 9 73 12 50 6
61 4 80 -14 13 -12 35 -21 53 -21 27 0 30 -2 20 -19 -15 -29 -13 -54 4 -48 9
4 16 -1 18 -11 3 -11 6 -8 9 10 5 21 3 25 -10 20 -13 -5 -14 -3 -4 10 7 8 11
17 8 19 -2 3 11 5 30 6 19 1 35 -3 35 -8 0 -5 15 -9 34 -9 19 0 38 -5 41 -10
3 -6 17 -7 31 -4 18 5 24 2 24 -10 0 -10 6 -13 15 -10 9 4 15 0 15 -7 0 -12 2
-12 9 -1 8 13 35 13 124 -2 30 -5 50 -16 29 -16 -7 0 -12 -4 -12 -10 0 -15 30
-12 36 3 4 10 15 12 47 6 97 -19 153 -32 168 -39 9 -5 41 -11 72 -15 31 -4 62
-13 68 -21 6 -8 15 -11 20 -8 5 3 16 -2 25 -10 8 -9 22 -16 29 -16 9 0 12 -6
9 -15 -4 -8 -1 -15 5 -15 6 0 11 8 11 18 0 14 7 17 40 14 27 -3 40 -9 40 -19
0 -8 5 -11 11 -8 6 4 17 -2 25 -14 8 -12 20 -21 26 -21 7 0 3 6 -8 14 -10 8
-16 17 -12 21 11 11 108 -6 108 -18 0 -8 21 -13 56 -14 59 -1 83 -18 84 -58 1
-20 1 -20 15 -1 19 25 19 40 0 32 -8 -3 -15 0 -15 6 0 16 103 0 113 -18 4 -8
16 -14 25 -14 13 0 14 2 3 9 -24 16 5 21 59 11 29 -6 55 -10 58 -10 2 0 0 -6
-6 -13 -9 -10 1 -12 46 -7 62 6 95 3 88 -9 -3 -4 22 -7 55 -8 32 -1 72 -7 89
-15 31 -13 41 -38 15 -38 -10 0 -15 -10 -15 -27 l1 -28 30 38 c17 20 39 37 48
37 9 0 22 5 28 11 7 7 25 8 54 2 34 -7 47 -15 59 -38 8 -17 16 -32 18 -35 4
-6 22 23 22 37 0 7 -7 10 -15 7 -8 -4 -15 -1 -15 6 0 9 11 11 38 6 20 -3 43
-6 50 -6 7 0 20 -16 28 -35 15 -38 30 -48 19 -14 -6 18 -5 20 14 10 15 -9 27
-9 41 -1 15 8 20 8 20 -2 0 -21 -40 -50 -61 -45 -10 3 -23 -1 -30 -9 -7 -9 -8
-14 -1 -14 6 0 13 6 15 13 4 9 6 9 6 0 1 -7 8 -10 18 -6 11 4 14 3 9 -5 -11
-18 19 -15 34 3 7 8 9 15 5 15 -4 0 -2 7 5 15 14 17 30 20 30 4 0 -5 -4 -8 -9
-4 -5 3 -12 1 -15 -4 -3 -5 1 -11 9 -14 8 -4 16 2 20 14 5 14 12 18 23 14 10
-4 32 -9 50 -12 28 -5 35 -12 34 -33 0 -3 25 -6 56 -6 37 -1 59 -7 67 -17 6
-8 19 -16 30 -18 11 -2 24 -14 30 -27 10 -23 29 -29 40 -12 11 17 25 11 25
-12 0 -12 -7 -30 -16 -40 -14 -15 -15 -18 -2 -23 8 -3 25 -1 39 4 17 7 19 10
7 10 -10 1 -18 7 -18 15 0 10 10 14 29 14 15 -1 34 3 41 7 10 6 12 4 7 -8 -6
-17 10 -22 54 -18 10 1 19 -8 23 -25 6 -22 11 -25 33 -21 36 7 78 -20 62 -39
-6 -8 -15 -11 -20 -8 -5 3 -9 0 -9 -5 0 -6 9 -11 20 -11 11 0 23 0 28 -1 4 0
10 10 14 23 4 16 6 17 7 6 1 -17 34 -32 62 -28 30 5 41 -1 74 -37 28 -30 36
-35 48 -24 10 7 17 8 21 2 4 -5 2 -12 -4 -16 -17 -10 0 -26 21 -20 13 5 32 -8
69 -46 39 -40 53 -50 62 -41 16 16 28 15 28 -2 0 -8 9 -18 20 -21 24 -8 17
-25 -11 -25 -27 0 -24 -20 4 -21 12 -1 29 -2 37 -3 8 -1 33 -9 54 -20 22 -10
51 -18 65 -18 25 0 71 -38 71 -58 0 -5 9 -16 21 -24 12 -8 18 -19 14 -25 -3
-6 1 -11 10 -11 11 0 15 -5 11 -15 -3 -9 0 -15 9 -15 8 0 15 7 15 15 0 8 4 15
9 15 14 0 23 -18 12 -24 -15 -9 -1 -44 17 -42 10 0 24 -14 34 -36 12 -26 23
-36 33 -32 8 4 15 1 15 -5 0 -6 -5 -11 -12 -11 -7 0 12 -23 42 -51 33 -31 50
-53 43 -56 -15 -5 -18 -33 -4 -33 5 0 12 6 14 13 4 7 6 6 6 -4 2 -27 25 -66
38 -62 12 4 26 -47 27 -97 1 -15 7 -26 16 -26 8 -1 18 -2 23 -3 9 -1 -30 -41
-41 -41 -11 0 -2 -69 9 -76 5 -3 4 -14 -2 -26 -8 -15 -8 -22 1 -28 7 -5 9 -13
5 -21 -5 -8 -5 -11 0 -7 4 4 14 3 22 -3 15 -13 18 -33 3 -24 -5 3 -10 2 -10
-3 0 -15 28 -23 36 -11 9 15 31 -32 26 -54 -2 -9 -8 -17 -12 -17 -4 0 -10 -9
-13 -21 -3 -12 -10 -18 -15 -15 -6 3 -8 16 -5 29 4 13 2 19 -3 14 -5 -5 -10
-29 -10 -55 -1 -25 -6 -48 -12 -50 -6 -2 -9 -9 -6 -15 6 -16 -31 -93 -39 -80
-3 5 0 22 8 37 13 24 13 30 1 42 -20 19 -33 18 -46 -7 -8 -15 -8 -24 0 -34 8
-10 8 -19 1 -33 -8 -16 -7 -21 5 -26 9 -3 20 -4 25 0 5 3 9 -2 9 -10 0 -8 8
-22 17 -32 16 -15 16 -17 -2 -30 -10 -8 -13 -14 -7 -14 17 0 4 -48 -20 -72
-18 -18 -19 -18 -28 4 -8 20 -9 18 -11 -17 -3 -55 -3 -57 -17 -83 -7 -12 -11
-26 -8 -30 3 -5 -5 -8 -17 -8 -14 1 -21 -4 -19 -13 2 -8 -3 -11 -12 -8 -11 4
-13 -2 -11 -29 4 -40 -20 -58 -40 -31 -7 10 -16 17 -20 17 -4 0 -2 -7 5 -15 7
-8 9 -23 6 -32 -6 -14 -9 -15 -15 -4 -7 11 -10 11 -17 0 -4 -7 -3 -14 4 -17 7
-2 12 -11 12 -19 0 -11 -7 -14 -24 -9 -21 5 -25 2 -30 -29 -4 -20 -11 -33 -16
-30 -5 3 -20 -5 -32 -17 l-23 -23 -3 23 c-4 25 -27 30 -36 6 -6 -16 9 -37 34
-46 8 -2 -6 -5 -32 -5 -35 0 -48 5 -51 16 -4 14 -5 13 -6 -1 0 -10 5 -23 13
-30 11 -10 8 -17 -16 -40 -38 -35 -45 -36 -23 -2 19 30 13 63 -9 45 -7 -6 -17
-7 -21 -3 -5 4 -5 -1 -2 -10 3 -10 2 -20 -4 -24 -6 -3 -8 -13 -5 -21 3 -8 2
-11 -3 -8 -6 3 -13 -1 -18 -8 -4 -7 -15 -16 -24 -20 -13 -4 -16 -1 -12 14 4
12 11 18 20 15 10 -4 13 0 11 11 -5 29 -26 25 -60 -10 -53 -56 -61 -69 -63
-91 -1 -14 -9 -21 -24 -21 -12 0 -26 -7 -30 -14 -13 -20 -70 -24 -77 -6 -5 12
-10 10 -26 -10 -18 -23 -77 -38 -64 -16 3 5 15 7 26 4 14 -4 20 0 20 10 0 22
-18 31 -35 17 -10 -9 -15 -7 -20 9 -10 33 -28 25 -22 -9 6 -26 2 -32 -22 -45
-21 -10 -28 -20 -24 -34 4 -17 -2 -19 -52 -23 -41 -2 -59 1 -64 11 -6 10 -13
11 -30 2 -16 -9 -21 -9 -21 1 0 9 -3 9 -8 2 -4 -6 -15 -13 -24 -17 -15 -5 -16
-2 -7 20 12 31 4 41 -20 26 -21 -13 -82 -7 -93 10 -6 8 -8 6 -6 -7 2 -12 -7
-25 -27 -36 -21 -12 -29 -23 -27 -38 3 -19 -2 -22 -35 -24 -21 0 -48 0 -60 1
-13 1 -23 -3 -23 -9 0 -13 -67 -13 -75 0 -3 6 -11 10 -16 10 -6 0 -7 -4 -4
-10 3 -5 -3 -10 -14 -10 -12 0 -21 5 -21 10 0 6 -11 10 -25 10 -14 0 -25 4
-25 9 0 15 -59 24 -74 12 -8 -7 -12 -21 -9 -31 5 -17 0 -20 -30 -20 -19 0 -38
6 -40 13 -4 9 -7 9 -15 -1 -13 -19 -103 12 -142 48 -23 21 -30 24 -35 12 -4
-10 -13 -12 -33 -7 -15 4 -33 8 -41 9 -8 2 -19 10 -26 19 -7 9 -17 17 -23 17
-6 0 -13 6 -16 13 -3 6 -3 1 0 -13 7 -33 -34 -84 -59 -74 -9 3 -17 12 -17 20
0 16 -16 19 -25 4 -3 -5 -1 -10 5 -10 6 0 8 -10 4 -27 -6 -22 -4 -25 10 -20
10 4 16 1 16 -7 0 -27 -64 -36 -74 -11 -7 19 -36 20 -36 1 0 -19 -15 -23 -95
-24 -75 -1 -125 12 -164 40 -22 17 -71 25 -71 13 0 -3 7 -17 16 -30 15 -23 15
-25 -1 -31 -10 -4 -22 1 -31 15 -19 27 -44 27 -51 1 -4 -14 -14 -20 -32 -20
-35 0 -104 25 -109 39 -2 6 -12 11 -22 11 -13 0 -17 -5 -13 -20 5 -17 0 -20
-30 -20 -19 0 -38 6 -40 13 -4 9 -8 9 -15 -1 -8 -11 -16 -11 -48 0 -61 22
-104 51 -110 75 -7 25 -27 35 -51 26 -10 -4 -14 -2 -10 4 4 6 0 14 -9 17 -25
10 -54 7 -54 -5 0 -6 8 -8 18 -5 24 8 64 -35 47 -51 -8 -7 -17 -7 -29 -1 -20
11 -25 8 -31 -20 -2 -15 0 -19 11 -15 9 3 14 -1 14 -12 0 -14 -6 -16 -37 -10
-21 3 -50 12 -65 20 -20 9 -28 10 -31 1 -3 -8 -18 -5 -53 8 -27 10 -72 23
-101 29 -49 10 -52 13 -47 37 5 22 4 23 -8 8 -15 -18 -46 -9 -34 10 9 15 -7
22 -19 8 -16 -19 -16 -36 0 -30 9 4 15 0 15 -10 0 -20 -25 -20 -79 -1 -23 8
-48 12 -56 9 -24 -9 -82 15 -134 56 -27 21 -52 36 -55 33 -3 -4 -6 0 -6 8 0 8
-12 19 -26 26 -25 11 -26 11 -20 -12 5 -21 3 -25 -18 -25 -13 0 -31 -2 -39 -5
-15 -6 -17 20 -4 42 10 16 -3 22 -36 16 -22 -4 -27 -11 -27 -34 0 -19 -5 -29
-15 -29 -28 0 -100 33 -139 63 -31 24 -40 27 -48 16 -8 -11 -9 -10 -4 3 8 26
-8 30 -28 7 -16 -19 -19 -20 -35 -5 -23 21 -30 20 -24 -4 5 -17 0 -20 -32 -20
-28 0 -36 4 -32 14 4 10 0 12 -14 9 -10 -3 -16 -9 -13 -14 13 -22 -67 6 -123
42 -42 27 -42 27 -45 6 -4 -29 -47 -36 -66 -10 -10 12 -16 14 -19 6 -6 -16
-95 -5 -106 14 -11 18 -27 17 -27 -2 0 -12 -7 -14 -27 -9 -50 10 -52 12 -45
36 5 20 4 21 -11 10 -9 -8 -21 -11 -27 -7 -6 3 -10 -3 -10 -16 0 -19 -4 -21
-31 -15 -44 9 -94 34 -123 63 -14 14 -30 22 -36 18 -7 -4 -14 2 -17 13 -3 14
-12 19 -29 17 -13 -1 -24 2 -24 7 0 6 -7 8 -15 5 -8 -4 -17 -2 -20 3 -3 5 -12
7 -20 3 -9 -3 -22 0 -30 7 -12 10 -16 9 -21 -4 -9 -23 -41 -20 -49 5 -5 16
-10 18 -20 9 -21 -17 -37 -3 -25 20 14 26 13 30 -11 30 -15 0 -19 5 -15 15 5
13 -2 15 -45 9 -42 -6 -52 -4 -64 12 -7 10 -16 16 -19 13 -4 -3 4 -17 17 -31
19 -20 21 -27 9 -37 -10 -10 -16 -10 -27 -1 -8 6 -19 9 -25 5 -15 -9 -12 -35
5 -35 8 0 15 -7 15 -16 0 -14 -7 -15 -42 -10 -24 4 -53 13 -65 21 -16 11 -22
12 -26 2 -3 -9 -15 -9 -53 2 -27 8 -79 14 -116 13 -40 -1 -68 2 -68 8 0 5 -5
10 -11 10 -5 0 -7 -4 -4 -10 8 -13 -13 -12 -55 3 -43 15 -91 46 -108 69 -15
21 -36 24 -29 4 8 -21 -44 -55 -70 -45 -13 5 -25 4 -28 -1 -4 -6 5 -10 18 -10
20 0 24 -4 20 -20 -6 -24 -22 -25 -70 -5 -20 9 -43 13 -51 10 -8 -3 -16 3 -19
15 -8 29 -39 22 -35 -8 3 -19 -1 -22 -32 -22 -20 0 -36 5 -36 10 0 6 -5 10
-11 10 -5 0 -7 -4 -4 -10 3 -5 0 -10 -7 -10 -19 0 -95 28 -126 46 -20 12 -22
12 -9 1 23 -19 22 -24 -8 -29 -22 -5 -25 -3 -19 16 6 19 5 20 -11 6 -10 -8
-32 -15 -49 -15 -17 -1 -42 -5 -54 -9 -22 -7 -23 -6 -17 15 7 22 7 23 -10 9
-10 -8 -32 -15 -49 -15 -17 -1 -41 -4 -53 -8 -18 -7 -21 -5 -16 15 4 22 4 22
-11 4 -11 -13 -22 -17 -40 -12 -13 3 -36 2 -49 -3 -22 -9 -25 -7 -23 15 1 26
11 32 19 12 3 -7 6 -3 6 8 1 12 -6 27 -15 34 -13 11 -16 10 -20 -8 -6 -21 -34
-39 -34 -21 0 5 -11 7 -25 3 -25 -6 -25 -5 -14 20 7 14 16 26 21 26 4 0 8 6 8
14 0 8 -9 13 -24 12 -18 -1 -26 -8 -30 -28 -6 -29 -26 -39 -26 -13 0 8 -7 15
-15 15 -8 0 -15 6 -15 13 0 17 -43 43 -48 28 -4 -13 -48 -15 -57 -1 -9 15 -34
0 -37 -23 l-3 -22 -21 23 c-13 14 -20 31 -17 43 4 14 1 18 -10 13 -16 -6 -42
28 -30 39 3 4 0 13 -7 21 -8 11 -11 53 -10 138 1 68 2 138 1 156 -1 22 4 32
13 32 12 0 13 7 5 32 -13 48 -11 84 6 98 14 11 13 14 -1 25 -13 9 -14 16 -5
33 6 11 11 31 11 44 0 13 5 29 12 36 9 9 9 12 -1 12 -17 0 -7 61 17 108 13 25
14 35 5 40 -9 5 -9 19 -3 47 5 22 11 52 15 67 3 16 12 28 20 28 7 0 17 4 20
10 3 6 -1 7 -9 4 -12 -5 -16 1 -16 20 0 15 6 29 14 32 8 3 12 12 10 19 -3 8
-13 11 -21 8 -18 -7 -19 -17 18 137 11 47 24 103 29 126 5 22 13 51 19 65 5
13 12 36 15 50 4 17 12 26 22 25 9 0 19 5 21 12 3 6 -2 12 -11 12 -9 0 -16 7
-16 15 0 8 5 15 11 15 8 0 7 5 -2 16 -9 12 -10 23 -2 47 6 18 11 50 12 72 1
65 12 119 28 137 10 11 13 24 8 35 -10 23 -7 50 12 90 8 18 12 36 9 42 -4 5 2
31 13 58 10 26 22 68 26 93 4 25 14 53 22 62 12 14 13 21 4 31 -13 16 -10 30
79 307 69 214 84 267 82 295 -2 22 17 87 27 95 14 12 41 74 41 95 0 13 5 27
11 31 6 3 9 19 6 34 -7 33 2 72 15 64 5 -3 8 0 7 7 -5 26 12 79 25 79 8 0 12
9 9 23 -2 12 1 29 7 37 9 13 11 13 21 0 8 -11 8 -9 2 10 -11 35 -8 83 6 88 6
2 9 8 6 13 -7 10 22 69 34 69 5 0 8 8 8 18 0 41 4 52 18 52 8 0 15 -4 15 -10
0 -5 7 -10 15 -10 8 0 15 4 15 9 0 12 -26 32 -38 29 -19 -5 -17 7 13 100 20
59 35 92 45 93 11 0 11 2 2 6 -10 4 -10 8 -1 19 6 7 17 33 24 56 7 24 18 42
25 40 6 -1 9 2 5 8 -3 5 3 26 14 47 11 21 37 73 57 116 20 42 41 77 46 77 4 0
7 4 6 9 -5 16 97 220 110 221 7 0 11 4 8 9 -7 10 49 116 61 116 14 0 49 41 45
53 -2 7 1 12 7 12 6 0 11 10 11 23 1 20 2 20 11 4 15 -26 30 -11 18 20 -14 37
-3 83 19 76 14 -4 14 -3 3 5 -11 8 -10 16 9 43 13 19 32 44 43 56 10 12 16 26
12 32 -3 6 -2 11 3 11 6 0 13 16 17 36 9 53 26 84 44 84 11 0 17 11 18 37 2
32 59 134 86 154 5 3 8 9 8 13 -3 19 3 29 41 73 23 26 47 47 55 45 7 -2 22 12
32 30 11 18 24 38 30 44 5 7 7 16 3 20 -4 5 0 3 8 -4 8 -7 15 -18 15 -24 0 -6
6 -13 14 -16 9 -3 11 1 7 16 -10 30 38 134 58 126 12 -4 21 6 36 40 10 25 26
46 34 46 9 0 12 7 9 20 -3 11 -1 20 4 20 5 0 17 16 26 35 9 19 24 35 32 35 9
0 13 4 10 10 -7 12 63 98 86 105 9 3 29 31 44 61 28 58 111 134 145 134 10 0
23 12 30 30 7 17 17 30 22 30 5 0 6 5 3 10 -3 6 -4 10 0 10 3 0 10 -12 16 -27
11 -27 12 -25 25 35 15 72 24 87 58 96 13 3 29 19 36 36 7 16 19 35 27 41 11
10 15 8 20 -11 5 -18 10 -9 23 42 20 77 26 88 48 88 11 0 24 18 37 53 14 36
25 51 36 49 11 -1 23 14 37 48 17 40 24 49 39 43 15 -5 16 -3 6 7 -10 11 -1
26 50 79 34 36 81 78 105 93 43 28 68 36 57 18 -3 -5 -3 -10 2 -10 4 0 16 18
25 40 12 29 21 38 32 34 9 -3 16 -2 16 4 0 6 -5 12 -11 14 -14 5 57 77 87 89
15 5 32 26 44 54 13 31 25 45 39 45 13 0 23 11 31 35 6 19 16 35 21 35 5 0 8
3 8 8 -4 22 5 38 45 77 24 23 55 45 68 48 14 4 31 21 41 42 9 19 28 40 41 45
15 5 32 26 45 54 13 31 24 44 34 40 16 -6 32 12 56 59 9 17 22 33 29 33 6 1
17 2 22 3 6 0 18 17 27 36 9 19 23 35 31 35 8 0 12 6 9 14 -7 18 56 78 110
105 23 11 53 32 67 46 14 14 32 25 40 25 8 0 32 27 54 60 l40 60 -4524 0
-4524 0 0 -5400z m9710 5376 c0 -3 -4 -8 -10 -11 -5 -3 -10 -1 -10 4 0 6 5 11
10 11 6 0 10 -2 10 -4z m273 -2120 c3 -8 -1 -17 -9 -20 -23 -9 -24 -8 -24 14
0 23 25 27 33 6z m1807 -16 c0 -5 -4 -10 -9 -10 -6 0 -13 5 -16 10 -3 6 1 10
9 10 9 0 16 -4 16 -10z m-2515 -39 c7 -12 -12 -24 -25 -16 -11 7 -4 25 10 25
5 0 11 -4 15 -9z m-418 -84 c-7 -18 -41 -27 -58 -16 -10 6 -9 9 7 9 12 0 27 7
34 15 15 18 25 13 17 -8z m-280 -93 c-3 -3 -12 -4 -19 -1 -8 3 -5 6 6 6 11 1
17 -2 13 -5z m-37 -33 c0 -12 -20 -25 -27 -18 -7 7 6 27 18 27 5 0 9 -4 9 -9z
m-500 -236 c-7 -9 -15 -13 -17 -11 -7 7 7 26 19 26 6 0 6 -6 -2 -15z m-80 -55
c0 -5 -7 -10 -15 -10 -8 0 -15 5 -15 10 0 6 7 10 15 10 8 0 15 -4 15 -10z
m-109 -65 c-1 -15 -24 -12 -29 3 -3 9 2 13 12 10 10 -1 17 -7 17 -13z m-131
-65 c0 -5 -5 -10 -11 -10 -5 0 -7 5 -4 10 3 6 8 10 11 10 2 0 4 -4 4 -10z
m-75 -40 c-10 -17 -35 -11 -35 8 0 10 3 21 6 25 9 9 36 -21 29 -33z m-35 -30
c0 -5 -5 -10 -11 -10 -5 0 -7 5 -4 10 3 6 8 10 11 10 2 0 4 -4 4 -10z m-73
-34 c-2 -6 -11 -12 -20 -14 -13 -3 -16 11 -8 35 1 1 8 0 16 -4 9 -3 14 -11 12
-17z m-267 -252 c0 -8 -5 -12 -10 -9 -6 4 -8 11 -5 16 9 14 15 11 15 -7z
m-139 -117 c-13 -13 -26 -3 -16 12 3 6 11 8 17 5 6 -4 6 -10 -1 -17z m-151
-157 c0 -5 -4 -10 -10 -10 -5 0 -10 5 -10 10 0 6 5 10 10 10 6 0 10 -4 10 -10z
m5280 -150 c0 -5 -4 -10 -10 -10 -5 0 -10 5 -10 10 0 6 5 10 10 10 6 0 10 -4
10 -10z m120 -310 c0 -5 -4 -10 -10 -10 -5 0 -10 5 -10 10 0 6 5 10 10 10 6 0
10 -4 10 -10z m-900 -126 c0 -8 -4 -12 -10 -9 -5 3 -10 10 -10 16 0 5 5 9 10
9 6 0 10 -7 10 -16z m-1686 -19 c-4 -8 -8 -15 -10 -15 -2 0 -4 7 -4 15 0 8 4
15 10 15 5 0 7 -7 4 -15z m1426 -89 c0 -2 3 -11 6 -20 4 -11 0 -16 -14 -16
-23 0 -36 15 -27 30 6 10 35 14 35 6z m-366 -132 c7 -20 7 -20 -20 -28 -17 -5
-20 -2 -18 16 3 30 2 28 18 28 8 0 17 -7 20 -16z m-3624 -514 c0 -5 -5 -10
-11 -10 -5 0 -7 5 -4 10 3 6 8 10 11 10 2 0 4 -4 4 -10z m5977 -1365 c-12 -9
-14 -14 -5 -23 9 -9 8 -12 -5 -12 -11 0 -17 8 -17 25 0 16 6 25 15 25 8 0 15
6 16 13 0 8 2 7 6 -2 3 -8 -1 -20 -10 -26z m-1167 -125 c0 -5 -2 -10 -4 -10
-3 0 -8 5 -11 10 -3 6 -1 10 4 10 6 0 11 -4 11 -10z m85 -30 c3 -5 -1 -10 -9
-10 -9 0 -16 5 -16 10 0 6 4 10 9 10 6 0 13 -4 16 -10z m485 -675 c-6 -8 -9
-19 -5 -25 3 -5 -1 -10 -9 -10 -21 0 -20 26 2 48 19 20 30 9 12 -13z m-70
-396 c0 -5 -4 -9 -10 -9 -5 0 -10 7 -10 16 0 8 5 12 10 9 6 -3 10 -10 10 -16z
m50 -60 c0 -6 -4 -7 -10 -4 -5 3 -10 11 -10 16 0 6 5 7 10 4 6 -3 10 -11 10
-16z m30 -39 c0 -5 -4 -10 -10 -10 -5 0 -10 5 -10 10 0 6 5 10 10 10 6 0 10
-4 10 -10z m-286 -449 c3 -5 0 -11 -8 -14 -15 -6 -26 1 -26 15 0 11 27 10 34
-1z m1326 -32 c0 -5 -4 -9 -10 -9 -5 0 -10 7 -10 16 0 8 5 12 10 9 6 -3 10
-10 10 -16z m-8165 1 c-3 -5 -10 -10 -16 -10 -5 0 -9 5 -9 10 0 6 7 10 16 10
8 0 12 -4 9 -10z m925 -5 c15 -18 13 -20 -17 -29 -18 -6 -22 -4 -17 8 4 10 1
16 -7 16 -11 0 -11 3 1 10 20 13 25 12 40 -5z m639 -34 c11 -20 -2 -31 -37
-31 -13 0 -14 2 -3 9 10 6 10 10 1 16 -9 6 -9 10 1 16 21 13 27 11 38 -10z
m5121 -41 c0 -5 -5 -10 -11 -10 -5 0 -7 5 -4 10 3 6 8 10 11 10 2 0 4 -4 4
-10z m-512 -261 c-2 -6 -8 -10 -13 -10 -5 0 -11 4 -13 10 -2 6 4 11 13 11 9 0
15 -5 13 -11z m-328 -21 c0 -7 -5 -20 -10 -28 -8 -12 -10 -10 -10 9 0 16 -4
21 -15 17 -8 -3 -15 -1 -15 4 0 6 11 10 25 10 14 0 25 -6 25 -12z m-52 -29
c-2 -6 -8 -10 -13 -10 -5 0 -11 4 -13 10 -2 6 4 11 13 11 9 0 15 -5 13 -11z
m-648 -29 c0 -4 -11 -10 -25 -12 -28 -6 -27 -6 -19 15 5 15 44 12 44 -3z m-70
6 c0 -3 -4 -8 -10 -11 -5 -3 -10 -1 -10 4 0 6 5 11 10 11 6 0 10 -2 10 -4z
m340 -6 c0 -5 -7 -10 -15 -10 -8 0 -15 5 -15 10 0 6 7 10 15 10 8 0 15 -4 15
-10z m-443 -42 c-19 -12 -27 -9 -27 10 0 28 13 35 27 16 10 -14 10 -19 0 -26z
m-1016 16 c10 -13 10 -17 -2 -25 -8 -5 -23 -8 -34 -8 -11 0 -14 3 -7 6 6 2 10
9 6 14 -6 10 3 29 15 29 5 0 14 -7 22 -16z m4549 -479 c0 -8 -4 -15 -10 -15
-5 0 -10 7 -10 15 0 8 5 15 10 15 6 0 10 -7 10 -15z m148 -449 c-8 -6 -17 -18
-21 -26 -4 -12 -6 -11 -6 3 -1 20 32 58 38 43 2 -5 -3 -14 -11 -20z m-137
-239 c-13 -13 -26 -3 -16 12 3 6 11 8 17 5 6 -4 6 -10 -1 -17z"/>
<path d="M9360 10750 c6 -11 17 -20 25 -20 12 0 12 4 -2 20 -10 11 -21 20 -26
20 -4 0 -3 -9 3 -20z"/>
<path d="M9040 10710 c0 -5 5 -10 11 -10 5 0 7 5 4 10 -3 6 -8 10 -11 10 -2 0
-4 -4 -4 -10z"/>
<path d="M9775 10640 c3 -5 8 -10 11 -10 2 0 4 5 4 10 0 6 -5 10 -11 10 -5 0
-7 -4 -4 -10z"/>
<path d="M9320 10481 c0 -5 7 -11 15 -15 8 -3 15 -1 15 3 0 5 -7 11 -15 15 -8
3 -15 1 -15 -3z"/>
<path d="M9295 10424 c18 -43 18 -74 -1 -81 -11 -4 -25 -13 -32 -20 -18 -18
-35 -16 -28 2 3 8 1 15 -5 15 -6 0 -9 -12 -8 -28 2 -18 -8 -43 -29 -75 -32
-46 -44 -52 -89 -48 -17 1 -23 -4 -23 -19 0 -28 -27 -25 -34 4 -8 31 -36 43
-36 15 0 -11 6 -22 14 -25 15 -6 10 -44 -6 -44 -6 0 -8 -7 -4 -15 3 -9 0 -15
-9 -15 -8 0 -15 -7 -15 -15 0 -9 -9 -15 -24 -15 -21 0 -41 -27 -37 -52 1 -5
-3 -8 -9 -8 -5 0 -10 5 -10 10 0 6 -7 10 -17 10 -15 0 -15 -2 1 -19 10 -11 15
-25 11 -30 -11 -19 -23 -12 -34 19 -12 35 -21 38 -38 11 -10 -16 -9 -20 3 -25
9 -3 20 -4 25 0 18 11 8 -16 -15 -41 l-24 -26 -16 23 c-12 17 -16 19 -16 6 0
-9 7 -23 15 -32 22 -21 18 -36 -9 -36 -15 0 -26 -7 -29 -20 -6 -23 -52 -28
-60 -7 -3 8 -13 4 -31 -12 -14 -14 -26 -19 -26 -13 0 7 -5 12 -11 12 -6 0 -8
-9 -4 -20 4 -12 2 -20 -6 -20 -8 0 -9 -10 -5 -30 4 -23 0 -36 -14 -50 -11 -11
-17 -26 -14 -35 4 -8 1 -21 -5 -29 -6 -7 -8 -16 -4 -20 4 -4 1 -5 -7 -1 -11 4
-21 -7 -33 -35 -9 -22 -17 -48 -17 -57 0 -45 -87 -136 -98 -103 -5 15 -23 12
-44 -7 -12 -10 -18 -12 -18 -4 0 7 -5 9 -11 5 -6 -3 -8 -16 -5 -28 4 -16 1
-23 -9 -23 -8 0 -15 5 -15 11 0 6 -7 2 -16 -9 -13 -17 -16 -18 -24 -5 -14 21
-12 30 5 30 8 0 15 7 15 15 0 25 -18 17 -35 -14 -10 -20 -11 -32 -5 -36 6 -4
8 -16 5 -26 -4 -11 -2 -26 5 -34 12 -15 -3 -31 -20 -20 -5 3 -10 -1 -10 -10 0
-9 -9 -34 -20 -56 -22 -41 -54 -61 -89 -54 -11 2 -24 -1 -27 -7 -4 -6 -3 -8 2
-5 6 3 16 1 24 -4 13 -8 13 -10 0 -19 -23 -15 -34 -12 -45 12 -6 12 -16 23
-22 26 -18 5 -16 -25 2 -36 21 -11 10 -36 -21 -51 -21 -9 -23 -14 -14 -32 14
-25 6 -36 -14 -20 -11 9 -16 6 -24 -18 -6 -16 -19 -32 -31 -36 -12 -4 -18 -12
-14 -20 3 -8 -2 -18 -11 -21 -9 -3 -16 -11 -16 -18 0 -6 -11 -16 -25 -23 -20
-9 -25 -8 -25 2 0 7 4 15 9 17 4 2 12 13 15 26 6 16 3 22 -8 22 -8 0 -21 -10
-27 -22 -7 -13 -17 -26 -22 -30 -6 -4 -3 -13 8 -24 17 -17 17 -19 -4 -35 -28
-23 -27 -31 5 -19 30 12 34 12 34 3 0 -12 -69 -54 -90 -56 -13 -1 -16 -5 -10
-16 5 -10 -1 -23 -19 -41 -38 -38 -61 -45 -62 -17 0 21 -1 21 -8 2 -5 -11 -7
-23 -4 -27 2 -4 -1 -16 -6 -27 -8 -14 -8 -21 2 -24 9 -3 9 -8 1 -17 -8 -8 -14
-9 -18 -1 -10 16 -26 13 -26 -4 0 -9 -10 -15 -26 -15 -14 0 -23 -4 -20 -9 3
-5 -5 -16 -19 -25 -14 -9 -25 -24 -25 -34 0 -10 -9 -25 -20 -35 -23 -19 -27
-42 -6 -34 18 7 29 -19 17 -42 -8 -14 -5 -17 21 -16 17 0 33 5 35 11 2 7 -4
11 -14 10 -9 0 -19 7 -21 16 -3 13 3 18 20 17 13 -1 31 2 41 6 10 4 17 3 17
-4 0 -22 31 -11 40 15 13 34 34 54 57 54 14 0 15 2 5 9 -18 11 38 76 82 96 17
8 60 30 94 49 35 20 80 38 100 42 21 3 47 12 59 20 28 18 31 18 36 -3 4 -14 5
-14 6 3 1 15 9 23 26 26 30 6 39 -1 23 -19 -19 -24 1 -28 23 -4 16 17 18 25 9
36 -10 12 -9 16 6 22 11 3 21 10 24 14 7 9 60 -1 60 -11 0 -12 -38 -23 -50
-15 -21 13 -31 -7 -11 -22 12 -8 25 -12 30 -9 5 4 11 0 14 -6 2 -7 12 3 22 22
35 70 108 126 187 145 21 6 30 2 43 -19 17 -26 41 -26 31 0 -3 8 1 14 8 14 7
0 18 6 25 13 15 19 109 65 156 76 22 5 60 15 84 22 32 9 45 9 50 1 5 -9 18 -6
46 8 49 25 57 25 79 1 20 -22 14 -43 -9 -34 -8 3 -15 1 -15 -5 0 -16 48 -24
70 -12 22 12 17 35 -6 26 -11 -4 -11 -2 -3 12 6 10 19 18 28 19 9 0 31 4 49 8
26 6 32 4 32 -9 0 -9 7 -16 15 -16 21 0 19 26 -2 35 -16 6 -15 8 6 16 14 6 30
8 37 5 7 -3 14 0 16 5 5 15 38 0 38 -17 0 -8 5 -14 10 -14 6 0 10 -9 10 -20 0
-18 3 -19 22 -9 20 11 20 13 5 24 -26 19 -21 32 16 44 34 12 67 6 67 -10 0 -5
7 -9 15 -9 8 0 15 7 15 15 0 13 18 20 43 16 4 0 7 3 7 9 0 5 13 7 29 4 16 -3
38 -1 49 5 14 7 23 8 27 1 4 -7 14 -5 28 5 12 8 33 15 47 15 l25 -1 -27 -15
c-16 -8 -28 -19 -28 -23 0 -11 38 -2 46 10 8 14 41 10 47 -5 3 -8 -1 -20 -9
-26 -8 -7 -14 -17 -14 -24 0 -6 14 6 31 27 17 20 39 37 49 37 10 0 20 4 22 10
2 5 35 11 73 14 39 3 62 2 53 0 -33 -10 -19 -26 15 -18 17 4 52 8 77 10 25 1
63 7 85 12 32 9 43 8 56 -4 19 -17 29 -18 29 -1 0 15 83 12 237 -8 15 -2 31
-4 36 -4 4 -1 7 -8 7 -16 0 -17 17 -20 22 -4 2 7 15 4 36 -8 17 -11 31 -22 29
-24 -1 -2 6 4 16 13 9 9 17 22 17 29 0 6 7 9 15 5 8 -3 15 -1 15 4 0 6 -12 10
-26 10 -19 0 -25 4 -20 15 3 8 1 15 -5 15 -6 0 -9 6 -6 14 3 8 -1 20 -9 26 -8
7 -14 19 -14 26 0 8 -5 13 -12 12 -7 -2 -13 10 -14 27 -1 17 0 24 3 18 6 -17
23 -17 23 0 0 7 -10 18 -21 26 -18 11 -23 11 -30 -1 -12 -18 -11 -32 4 -47 10
-11 9 -13 -3 -9 -8 3 -16 15 -18 29 -6 45 -11 53 -27 39 -12 -10 -15 -10 -15
0 0 7 -10 23 -22 35 -70 69 -138 149 -135 158 2 6 -5 19 -15 29 -11 11 -17 27
-13 37 3 11 -3 26 -17 39 -29 27 -72 70 -100 100 -13 13 -23 31 -23 39 0 9 -6
18 -14 21 -10 3 -12 -1 -8 -14 7 -18 6 -18 -8 0 -8 11 -15 23 -15 28 0 4 -5 8
-11 8 -6 0 -24 11 -41 25 -47 40 -160 166 -154 172 3 3 -2 12 -12 19 -10 7
-17 26 -17 45 0 29 -5 36 -44 56 -1 1 0 7 4 13 6 9 10 9 16 -1 6 -9 8 -3 6 18
-2 32 -1 32 -77 50 -66 15 -90 15 -90 -2 0 -14 -8 -10 -39 16 -21 19 -53 45
-70 58 -18 13 -39 37 -47 52 -10 20 -21 28 -37 27 -22 -1 -74 25 -131 65 -28
20 -29 20 -21 1z m-185 -264 c0 -5 -4 -10 -10 -10 -5 0 -10 5 -10 10 0 6 5 10
10 10 6 0 10 -4 10 -10z m-393 -348 c15 -9 4 -26 -19 -30 -12 -2 -15 3 -11 18
6 22 11 24 30 12z m-37 -52 c0 -5 -5 -10 -11 -10 -5 0 -7 5 -4 10 3 6 8 10 11
10 2 0 4 -4 4 -10z m-30 -70 c0 -5 -5 -10 -11 -10 -5 0 -7 5 -4 10 3 6 8 10
11 10 2 0 4 -4 4 -10z m-220 -290 c0 -5 -4 -10 -9 -10 -6 0 -13 5 -16 10 -3 6
1 10 9 10 9 0 16 -4 16 -10z m-820 -884 c-14 -14 -22 -2 -14 18 5 14 9 15 15
4 4 -7 4 -17 -1 -22z"/>
<path d="M9240 10371 c0 -5 5 -13 10 -16 6 -3 10 -2 10 4 0 5 -4 13 -10 16 -5
3 -10 2 -10 -4z"/>
<path d="M8966 10235 c-8 -22 9 -44 24 -29 7 7 6 16 -3 28 -13 18 -14 18 -21
1z"/>
<path d="M10266 10174 c-4 -9 -4 -19 -2 -21 8 -8 26 8 26 23 0 19 -16 18 -24
-2z"/>
<path d="M8885 10100 c-3 -5 -1 -10 4 -10 6 0 11 5 11 10 0 6 -2 10 -4 10 -3
0 -8 -4 -11 -10z"/>
<path d="M8920 10095 c-9 -11 -10 -19 -2 -27 14 -14 32 -1 32 23 0 23 -13 25
-30 4z"/>
<path d="M8317 10043 c-4 -3 -7 -11 -7 -17 0 -6 5 -5 12 2 6 6 9 14 7 17 -3 3
-9 2 -12 -2z"/>
<path d="M9870 10020 c0 -5 5 -10 10 -10 6 0 10 5 10 10 0 6 -4 10 -10 10 -5
0 -10 -4 -10 -10z"/>
<path d="M8795 10010 c-3 -5 1 -10 9 -10 9 0 16 5 16 10 0 6 -4 10 -9 10 -6 0
-13 -4 -16 -10z"/>
<path d="M8749 9907 c-14 -10 -14 -14 -3 -25 18 -16 34 -7 34 19 0 22 -8 24
-31 6z"/>
<path d="M8550 9824 c8 -10 15 -20 16 -22 1 -2 4 1 7 5 3 5 -4 15 -16 23 -21
12 -21 12 -7 -6z"/>
<path d="M8601 9774 c0 -11 3 -14 6 -6 3 7 2 16 -1 19 -3 4 -6 -2 -5 -13z"/>
<path d="M8555 9770 c3 -5 8 -10 11 -10 2 0 4 5 4 10 0 6 -5 10 -11 10 -5 0
-7 -4 -4 -10z"/>
<path d="M8580 9730 c0 -5 5 -10 11 -10 5 0 7 5 4 10 -3 6 -8 10 -11 10 -2 0
-4 -4 -4 -10z"/>
<path d="M10170 9690 c6 -11 12 -20 15 -20 12 0 35 13 35 21 0 4 -7 6 -15 3
-8 -4 -15 -1 -15 5 0 6 -7 11 -15 11 -13 0 -14 -4 -5 -20z"/>
<path d="M10290 9541 c0 -5 5 -13 10 -16 6 -3 10 -2 10 4 0 5 -4 13 -10 16 -5
3 -10 2 -10 -4z"/>
<path d="M8470 9500 c0 -5 5 -10 10 -10 6 0 10 5 10 10 0 6 -4 10 -10 10 -5 0
-10 -4 -10 -10z"/>
<path d="M10429 9377 c6 -8 8 -17 4 -20 -3 -4 -1 -7 5 -7 7 0 12 9 12 20 0 12
-7 20 -16 20 -13 0 -14 -3 -5 -13z"/>
<path d="M8190 9234 c0 -8 5 -12 10 -9 6 3 10 10 10 16 0 5 -4 9 -10 9 -5 0
-10 -7 -10 -16z"/>
<path d="M11150 9126 c0 -2 7 -6 15 -10 8 -3 15 -1 15 4 0 6 -7 10 -15 10 -8
0 -15 -2 -15 -4z"/>
<path d="M11220 9016 c0 -2 7 -6 15 -10 8 -3 15 -1 15 4 0 6 -7 10 -15 10 -8
0 -15 -2 -15 -4z"/>
<path d="M8920 8995 c0 -8 7 -15 15 -15 8 0 15 4 15 9 0 5 -7 11 -15 15 -9 3
-15 0 -15 -9z"/>
<path d="M9130 8990 c-13 -8 -12 -10 3 -10 9 0 17 5 17 10 0 12 -1 12 -20 0z"/>
<path d="M8488 8883 c7 -3 16 -2 19 1 4 3 -2 6 -13 5 -11 0 -14 -3 -6 -6z"/>
<path d="M7210 8789 c0 -5 5 -7 10 -4 6 3 10 8 10 11 0 2 -4 4 -10 4 -5 0 -10
-5 -10 -11z"/>
<path d="M7220 8749 c0 -5 5 -7 10 -4 6 3 10 8 10 11 0 2 -4 4 -10 4 -5 0 -10
-5 -10 -11z"/>
<path d="M9612 8670 c-10 -17 -10 -20 3 -20 8 0 15 9 15 20 0 11 -1 20 -3 20
-1 0 -8 -9 -15 -20z"/>
<path d="M9866 8674 c-9 -22 3 -32 14 -14 12 19 12 30 1 30 -5 0 -12 -7 -15
-16z"/>
<path d="M9266 8671 c-4 -7 -5 -15 -2 -18 9 -9 19 4 14 18 -4 11 -6 11 -12 0z"/>
<path d="M7622 8415 c-6 -13 -7 -27 -3 -30 5 -2 12 7 15 21 9 35 2 40 -12 9z"/>
<path d="M11917 8370 c6 -24 26 -21 31 3 2 11 -3 17 -16 17 -15 0 -19 -5 -15
-20z"/>
<path d="M12000 8295 c0 -8 2 -15 4 -15 2 0 6 7 10 15 3 8 1 15 -4 15 -6 0
-10 -7 -10 -15z"/>
<path d="M6655 8100 c-3 -5 -1 -10 4 -10 6 0 11 5 11 10 0 6 -2 10 -4 10 -3 0
-8 -4 -11 -10z"/>
<path d="M7585 8020 c3 -5 11 -10 16 -10 6 0 7 5 4 10 -3 6 -11 10 -16 10 -6
0 -7 -4 -4 -10z"/>
<path d="M12281 8017 c-6 -8 -8 -17 -5 -20 9 -8 44 11 44 23 0 15 -26 12 -39
-3z"/>
<path d="M7528 7993 c-10 -2 -18 -9 -18 -14 0 -14 16 -11 30 6 7 8 11 14 9 14
-2 -1 -12 -3 -21 -6z"/>
<path d="M6585 7980 c3 -5 8 -10 11 -10 2 0 4 5 4 10 0 6 -5 10 -11 10 -5 0
-7 -4 -4 -10z"/>
<path d="M7475 7950 c3 -5 11 -10 16 -10 6 0 7 5 4 10 -3 6 -11 10 -16 10 -6
0 -7 -4 -4 -10z"/>
<path d="M12290 7794 c0 -10 28 -33 33 -27 3 3 0 12 -8 19 -14 15 -25 18 -25
8z"/>
<path d="M11426 7781 c-5 -7 -3 -18 3 -24 14 -14 20 -6 11 17 -5 15 -9 16 -14
7z"/>
<path d="M7320 7710 c0 -5 5 -10 10 -10 6 0 10 5 10 10 0 6 -4 10 -10 10 -5 0
-10 -4 -10 -10z"/>
<path d="M11486 7672 c-10 -16 1 -32 22 -32 11 0 13 3 6 8 -6 4 -13 14 -16 22
-3 10 -6 11 -12 2z"/>
<path d="M6960 7580 c0 -24 25 -27 34 -4 9 23 8 24 -14 24 -13 0 -20 -7 -20
-20z"/>
<path d="M6488 7563 c7 -3 16 -2 19 1 4 3 -2 6 -13 5 -11 0 -14 -3 -6 -6z"/>
<path d="M12355 7521 c-6 -11 9 -23 19 -14 9 9 7 23 -3 23 -6 0 -12 -4 -16 -9z"/>
<path d="M12301 7444 c0 -11 3 -14 6 -6 3 7 2 16 -1 19 -3 4 -6 -2 -5 -13z"/>
<path d="M6910 7370 c0 -5 5 -10 10 -10 6 0 10 5 10 10 0 6 -4 10 -10 10 -5 0
-10 -4 -10 -10z"/>
<path d="M12225 7311 c-3 -5 -1 -12 5 -16 5 -3 10 1 10 9 0 18 -6 21 -15 7z"/>
<path d="M6803 7235 c-13 -29 1 -34 17 -6 12 23 13 31 3 31 -5 0 -13 -11 -20
-25z"/>
<path d="M12170 7165 c0 -8 2 -15 4 -15 2 0 6 7 10 15 3 8 1 15 -4 15 -6 0
-10 -7 -10 -15z"/>
<path d="M12180 7106 c0 -9 7 -16 16 -16 17 0 14 22 -4 28 -7 2 -12 -3 -12
-12z"/>
<path d="M10750 6970 c0 -5 7 -10 15 -10 8 0 15 5 15 10 0 6 -7 10 -15 10 -8
0 -15 -4 -15 -10z"/>
<path d="M6690 6910 c0 -5 7 -10 15 -10 8 0 15 5 15 10 0 6 -7 10 -15 10 -8 0
-15 -4 -15 -10z"/>
<path d="M10435 6880 c-3 -5 1 -10 10 -10 9 0 13 5 10 10 -3 6 -8 10 -10 10
-2 0 -7 -4 -10 -10z"/>
<path d="M11440 6879 c0 -5 5 -7 10 -4 6 3 10 8 10 11 0 2 -4 4 -10 4 -5 0
-10 -5 -10 -11z"/>
<path d="M11340 6810 c0 -5 5 -10 10 -10 6 0 10 5 10 10 0 6 -4 10 -10 10 -5
0 -10 -4 -10 -10z"/>
<path d="M12425 6780 c-3 -5 -1 -10 4 -10 6 0 11 5 11 10 0 6 -2 10 -4 10 -3
0 -8 -4 -11 -10z"/>
<path d="M5945 6730 c-3 -5 -1 -10 4 -10 6 0 11 5 11 10 0 6 -2 10 -4 10 -3 0
-8 -4 -11 -10z"/>
<path d="M6590 6686 c0 -2 7 -9 15 -16 13 -11 14 -10 9 4 -5 14 -24 23 -24 12z"/>
<path d="M6657 6623 c-4 -3 -7 -11 -7 -17 0 -6 5 -5 12 2 6 6 9 14 7 17 -3 3
-9 2 -12 -2z"/>
<path d="M12496 6591 c-4 -7 -5 -15 -2 -18 9 -9 19 4 14 18 -4 11 -6 11 -12 0z"/>
<path d="M10021 6483 c-1 -18 18 -26 33 -14 7 6 17 7 21 3 5 -4 5 -1 1 6 -5 8
-13 9 -26 2 -13 -7 -20 -6 -23 3 -4 9 -6 9 -6 0z"/>
<path d="M5880 6290 c0 -13 11 -13 30 0 12 8 11 10 -7 10 -13 0 -23 -4 -23
-10z"/>
<path d="M6186 6253 c-6 -14 -5 -15 5 -6 7 7 10 15 7 18 -3 3 -9 -2 -12 -12z"/>
<path d="M6224 6226 c-31 -32 -40 -51 -22 -43 10 3 19 -3 26 -19 12 -25 7 -54
-9 -54 -5 0 -9 -7 -9 -15 0 -8 -4 -15 -10 -15 -5 0 -10 11 -10 24 0 16 7 26
22 30 17 4 20 8 11 17 -18 18 -46 -16 -47 -57 -1 -22 -6 -34 -15 -34 -11 0
-11 -3 0 -17 11 -13 11 -17 2 -20 -7 -3 -13 -13 -13 -24 0 -11 -7 -19 -16 -19
-10 0 -14 -6 -10 -15 3 -8 1 -15 -5 -15 -6 0 -7 -5 -4 -10 4 -6 15 -8 25 -5
27 8 40 -53 15 -71 -9 -7 -14 -17 -10 -23 3 -6 1 -11 -5 -11 -6 0 -8 -5 -5
-10 4 -6 2 -17 -5 -25 -7 -9 -8 -15 0 -20 23 -14 11 -103 -22 -162 -27 -50
-31 -67 -29 -124 1 -43 -4 -76 -14 -95 -8 -16 -18 -45 -21 -64 -4 -19 -10 -39
-14 -45 -4 -5 -17 -39 -29 -74 -29 -84 -47 -119 -71 -134 -11 -6 -20 -17 -20
-24 0 -7 -3 -12 -7 -12 -5 1 -21 1 -37 0 -25 -1 -27 -3 -15 -17 8 -10 9 -18 2
-22 -6 -4 -13 -17 -17 -29 -4 -13 -15 -23 -24 -23 -10 0 -13 3 -7 8 11 7 12
48 1 59 -9 9 -16 -1 -22 -32 -3 -16 -9 -36 -15 -47 -13 -24 14 -36 38 -17 15
12 16 12 10 -3 -3 -9 -2 -18 2 -20 5 -2 11 -13 15 -25 5 -16 2 -23 -15 -28
-13 -5 -25 -2 -29 6 -7 10 -11 10 -24 0 -9 -8 -16 -20 -16 -28 0 -7 -7 -25
-16 -38 -9 -14 -12 -25 -6 -25 6 0 14 9 17 20 3 11 11 20 16 20 5 0 9 7 9 15
0 8 7 15 15 15 9 0 15 -9 15 -25 0 -16 -5 -23 -13 -19 -7 2 -24 -7 -37 -21
l-23 -25 21 0 c12 0 22 -5 22 -11 0 -5 -4 -7 -10 -4 -6 4 -10 -8 -10 -29 0
-19 -4 -38 -10 -41 -18 -11 -10 -26 11 -20 14 5 20 3 19 -7 -3 -23 12 -58 22
-52 6 4 14 0 19 -7 13 -21 11 -67 -3 -72 -9 -2 -12 -22 -11 -60 1 -32 -2 -57
-6 -57 -5 0 -12 -11 -15 -25 -4 -14 -11 -25 -16 -25 -6 0 -10 -9 -10 -20 0
-11 -7 -23 -15 -26 -8 -4 -15 -10 -15 -15 0 -5 -9 -18 -20 -29 -11 -11 -20
-24 -20 -29 0 -5 9 -11 20 -14 11 -3 20 -10 20 -16 0 -7 -10 -9 -26 -5 l-26 7
27 -46 c39 -68 46 -186 15 -248 -13 -24 -33 -55 -46 -68 -29 -29 -29 -37 -5
-94 13 -30 16 -48 9 -55 -6 -6 -6 -12 1 -16 24 -15 -3 -246 -34 -293 -11 -17
-14 -28 -7 -35 6 -6 84 -10 191 -11 100 0 184 -4 187 -8 3 -5 0 -9 -5 -9 -6 0
-11 -4 -11 -10 0 -15 50 -24 63 -11 8 8 7 11 -6 11 -9 0 -17 5 -17 10 0 6 4
10 9 10 6 0 13 -4 16 -10 3 -5 15 -10 25 -10 10 0 20 -4 22 -10 2 -6 8 -6 18
0 13 8 12 10 -3 10 -10 0 -15 5 -12 11 9 13 101 5 120 -11 9 -7 15 -8 15 -3 0
11 68 23 166 28 56 4 62 2 74 -20 15 -28 59 -39 80 -19 10 10 10 14 2 14 -7 0
-12 5 -12 10 0 6 8 5 20 -2 16 -10 24 -10 41 0 22 14 105 7 115 -9 10 -17 34
-10 27 8 -5 14 -1 15 33 10 21 -4 53 -7 69 -7 21 0 26 -3 16 -9 -9 -6 9 -9 50
-9 113 -1 174 -7 196 -20 30 -17 38 -15 22 4 -12 15 -11 16 6 11 11 -3 46 -8
79 -12 46 -5 59 -11 63 -26 3 -11 14 -19 27 -19 12 0 31 -7 43 -15 18 -13 22
-13 27 0 4 12 11 13 31 5 15 -6 30 -8 35 -5 5 3 11 1 15 -5 3 -5 19 -10 34
-10 15 0 31 -3 35 -7 4 -4 30 -9 59 -11 32 -2 60 -11 72 -22 16 -15 35 -18
104 -17 53 1 86 -2 88 -9 2 -7 24 -9 58 -6 50 4 58 2 90 -27 21 -19 47 -31 63
-31 22 0 24 2 12 11 -12 8 -10 9 10 5 14 -3 28 -6 32 -6 3 0 8 -6 11 -12 2 -7
2 -2 0 11 -4 23 -3 23 44 16 48 -7 94 -30 74 -36 -7 -3 -6 -12 5 -27 8 -12 20
-20 25 -16 6 3 3 11 -6 18 -14 10 -14 14 -3 23 17 13 78 22 78 11 0 -4 7 -8
15 -8 19 0 19 -7 0 -27 -12 -12 -19 -13 -30 -3 -12 10 -15 9 -15 -3 0 -9 4
-19 10 -22 12 -8 59 26 60 42 0 20 129 11 162 -11 17 -11 37 -16 51 -12 13 3
27 3 30 -1 9 -9 -24 -62 -42 -66 -9 -3 -2 -5 16 -6 27 -1 32 3 38 28 5 25 10
28 43 26 20 -1 39 -4 42 -5 6 -3 39 -8 85 -13 17 -1 36 -6 43 -10 6 -5 16 -5
22 -2 5 3 22 -1 37 -9 16 -8 44 -14 64 -14 40 0 89 -26 89 -48 0 -18 8 -18 28
2 13 13 29 15 80 11 35 -4 76 -13 92 -20 15 -8 51 -14 79 -13 28 1 51 -1 51
-6 0 -4 19 -6 41 -4 46 5 79 -10 79 -34 0 -11 9 -15 28 -15 31 1 82 14 97 25
6 4 29 10 51 13 31 3 46 0 58 -12 12 -12 19 -13 24 -4 5 8 44 13 115 14 95 1
110 -1 122 -17 8 -11 15 -21 15 -24 0 -3 12 -6 28 -7 32 -2 59 16 42 27 -7 4
1 7 17 8 15 0 51 5 78 11 91 20 135 23 135 10 0 -9 4 -8 15 1 24 20 156 42
172 28 10 -8 17 -8 25 0 22 22 97 14 130 -13 33 -28 66 -33 74 -11 6 15 33 11
45 -6 3 -5 12 -2 19 7 11 13 10 14 -5 9 -13 -5 -16 -4 -11 4 8 13 56 16 93 6
19 -5 39 -45 35 -66 -1 -5 9 -8 23 -8 13 0 28 -8 33 -17 9 -15 11 -15 26 -1 8
9 21 18 28 21 22 7 1 19 -36 20 -20 1 -36 5 -36 10 0 5 -6 7 -14 4 -9 -4 -12
0 -9 12 3 12 13 16 34 15 16 -1 29 2 29 7 0 5 13 3 30 -6 37 -19 50 -19 50 0
0 9 -6 12 -17 8 -11 -4 -14 -3 -9 6 10 15 108 3 119 -15 12 -21 26 -17 24 6
-1 11 -5 20 -10 20 -4 0 -5 5 -2 11 7 10 85 6 105 -6 6 -4 22 1 37 10 21 14
27 15 34 4 7 -11 9 -10 9 5 0 12 5 16 16 12 9 -3 18 -6 20 -6 2 0 4 -7 4 -15
0 -8 -4 -15 -10 -15 -5 0 -10 -4 -10 -10 0 -5 8 -6 17 -3 12 5 15 2 10 -10
-12 -31 2 -18 19 18 9 19 22 35 29 35 6 0 20 9 31 21 33 36 94 61 163 65 54 4
70 9 95 32 16 15 26 21 22 15 -4 -7 -4 -13 -1 -13 10 0 40 33 36 39 -3 3 4 8
13 9 13 3 16 0 11 -9 -5 -7 -4 -10 3 -5 6 4 9 13 5 21 -3 9 1 15 10 15 9 0 36
14 60 30 25 17 47 30 50 30 2 0 24 18 48 40 24 22 50 40 57 40 7 0 12 6 11 13
-1 6 -1 23 0 37 l1 25 21 -30 20 -30 -7 35 c-3 19 -10 36 -15 38 -13 5 0 51
29 100 13 23 22 51 19 62 -3 10 0 21 7 23 8 3 8 7 -1 18 -6 8 -11 25 -11 39 1
14 -5 57 -11 95 -7 39 -14 78 -15 87 -3 21 -16 37 -16 20 0 -18 -17 -14 -23 6
-2 9 -8 25 -12 34 -5 13 -2 15 14 11 17 -4 20 -2 15 11 -4 10 -13 15 -21 12
-9 -4 -17 2 -20 15 -4 13 -11 18 -21 14 -11 -4 -13 0 -9 15 3 11 1 18 -4 14
-5 -3 -9 0 -9 6 0 6 -5 8 -11 4 -8 -4 -7 -9 2 -15 11 -7 10 -9 -4 -9 -10 0
-25 13 -34 29 -9 15 -32 38 -50 51 -18 12 -33 30 -33 39 1 13 3 13 16 -4 15
-20 15 -19 12 5 -2 14 -9 24 -16 23 -6 -2 -12 2 -12 8 0 6 -9 8 -20 4 -11 -3
-20 -2 -20 3 0 5 -14 9 -31 10 -33 1 -192 78 -246 119 -18 14 -44 46 -56 72
-22 43 -26 46 -65 46 -52 1 -57 6 -32 35 11 13 20 32 19 44 0 21 0 21 -9 0
-11 -29 -30 -40 -40 -23 -7 10 -11 10 -24 0 -19 -16 -12 -33 9 -24 9 3 15 -1
15 -11 0 -22 -38 -21 -92 3 -50 23 -108 74 -108 96 0 12 -28 35 -45 35 -3 0
-3 -11 1 -25 5 -21 3 -25 -15 -25 -30 0 -88 26 -127 55 -18 14 -39 25 -48 25
-8 0 -22 7 -30 16 -9 8 -16 11 -16 5 0 -16 -25 -14 -39 3 -9 11 -9 15 1 18 8
3 6 7 -5 11 -11 4 -17 1 -17 -8 0 -8 -4 -15 -9 -15 -5 0 -7 9 -4 20 6 22 -7
26 -25 8 -9 -9 -12 -8 -12 5 0 9 7 17 15 17 8 0 15 5 15 11 0 6 -9 9 -19 6
-20 -5 -36 17 -25 34 3 5 1 9 -4 9 -16 0 -23 -30 -12 -51 7 -13 7 -19 0 -19
-5 0 -10 5 -10 10 0 6 -16 10 -36 10 -29 0 -35 3 -30 16 6 15 4 15 -20 -1 -19
-12 -29 -14 -37 -6 -6 6 -26 11 -44 11 -18 0 -33 5 -33 10 0 6 -7 10 -16 10
-8 0 -13 -4 -9 -10 8 -13 -57 -8 -72 6 -9 8 -9 14 -1 22 7 7 8 15 4 19 -4 4
-11 1 -15 -6 -7 -10 -13 -10 -29 -2 -27 15 -32 14 -32 -4 0 -8 5 -15 10 -15 6
0 10 -7 10 -15 0 -18 -23 -18 -72 -1 -21 7 -48 11 -60 9 -13 -2 -43 2 -66 10
-24 8 -52 13 -62 10 -11 -3 -32 -1 -48 5 -15 6 -36 13 -47 18 -11 4 -42 9 -70
11 -29 3 -55 11 -63 21 -9 12 -15 13 -18 6 -6 -16 -84 -6 -105 12 -18 16 -33
19 -24 4 3 -5 -1 -10 -9 -10 -8 0 -18 5 -21 10 -3 6 -19 10 -34 10 -16 0 -34
7 -41 15 -11 13 -15 13 -22 3 -6 -10 -13 -8 -27 10 -11 12 -31 23 -46 24 -15
2 -30 9 -33 16 -4 11 -6 11 -14 0 -6 -10 -13 -8 -31 12 -25 28 -87 38 -87 14
0 -21 -28 -17 -42 5 -9 15 -15 17 -30 7 -15 -9 -21 -8 -29 6 -5 10 -17 14 -29
11 -11 -3 -27 0 -35 7 -8 7 -22 9 -31 6 -9 -4 -23 -1 -30 5 -8 6 -20 9 -28 6
-8 -3 -22 1 -33 8 -10 8 -28 11 -40 8 -14 -3 -23 -1 -23 6 0 6 -9 11 -19 11
-26 0 -34 15 -17 29 11 9 18 8 30 -5 23 -22 34 -9 12 15 -14 16 -21 17 -41 7
-14 -6 -29 -23 -34 -38 -12 -32 -44 -37 -73 -11 -11 9 -18 11 -18 5 0 -20 -32
-13 -37 8 -5 20 -23 28 -23 10 0 -5 -5 -10 -10 -10 -6 0 -9 6 -8 13 2 7 -5 11
-16 9 -13 -3 -17 1 -13 12 3 8 -1 20 -8 26 -8 7 -13 16 -10 20 8 13 -9 20 -25
10 -12 -7 -12 -10 3 -16 18 -7 24 -34 7 -34 -5 0 -10 6 -10 14 0 8 -7 17 -16
20 -22 8 -22 8 -27 -11 -3 -13 -5 -14 -6 -3 -1 8 -12 20 -26 27 -22 10 -25 9
-25 -7 0 -12 -10 -19 -31 -22 -29 -5 -31 -3 -25 24 5 27 4 28 -29 25 -19 -1
-34 -6 -34 -12 4 -31 -3 -45 -20 -45 -25 0 -90 28 -120 51 -13 10 -36 19 -51
19 -15 0 -33 7 -40 15 -10 12 -15 13 -21 4 -4 -7 -14 -9 -24 -6 -9 4 -14 11
-10 17 4 6 -5 8 -23 4 -19 -4 -34 -1 -45 10 -10 11 -18 13 -22 5 -5 -7 -13 -5
-25 6 -10 9 -24 14 -30 10 -6 -4 -22 0 -35 9 -13 9 -26 12 -29 7 -7 -11 -32
-6 -101 19 -27 10 -68 23 -90 30 -22 7 -54 24 -71 36 -17 13 -38 24 -47 24 -9
0 -19 5 -23 12 -4 7 -3 8 4 4 8 -5 11 1 10 18 -3 28 -31 40 -60 25 -21 -11
-15 -31 7 -22 9 3 15 -1 15 -11 0 -24 -39 -20 -112 10 -35 14 -79 33 -98 40
-19 8 -53 30 -75 49 -22 19 -44 35 -48 35 -5 0 -6 8 -3 18 3 9 -1 25 -9 36
-13 17 -15 17 -36 2 -19 -13 -20 -16 -6 -22 9 -3 21 -3 27 1 6 3 10 -3 10 -14
0 -14 -6 -21 -20 -21 -52 0 -163 71 -176 113 -8 26 -33 57 -47 57 -5 0 -7 -11
-5 -25 3 -14 2 -25 -2 -25 -13 0 -40 36 -40 53 0 9 -6 17 -14 17 -7 0 -21 10
-29 23 -13 18 -18 19 -26 8 -5 -8 -7 -20 -4 -28 7 -19 -3 -16 -25 8 -12 12
-18 28 -14 41 3 14 1 19 -6 14 -6 -4 -21 -1 -32 6 -17 11 -22 11 -30 -2 -7
-11 -15 -7 -42 21 -18 19 -63 49 -99 66 -67 32 -164 125 -155 149 5 13 -10 39
-24 40 -5 1 -14 2 -20 3 -5 0 -7 9 -4 19 5 14 4 14 -4 3 -9 -12 -13 -12 -26
-2 -8 7 -15 16 -14 19 3 25 -4 42 -17 42 -22 0 -54 20 -97 62 -42 40 -51 69
-18 61 11 -3 20 0 20 6 0 11 -12 15 -42 12 -21 -3 -24 15 -5 22 7 3 5 6 -6 6
-10 1 -17 7 -16 14 3 19 -12 47 -25 46 -6 -1 -20 -11 -32 -23z m220 -232 c3
-8 2 -12 -4 -9 -6 3 -10 10 -10 16 0 14 7 11 14 -7z m90 -90 c3 -8 2 -12 -4
-9 -6 3 -10 10 -10 16 0 14 7 11 14 -7z m-674 -964 c0 -5 -2 -10 -4 -10 -3 0
-8 5 -11 10 -3 6 -1 10 4 10 6 0 11 -4 11 -10z m26 -57 c-10 -10 -19 5 -10 18
6 11 8 11 12 0 2 -7 1 -15 -2 -18z m3701 -109 c-3 -3 -12 -4 -19 -1 -8 3 -5 6
6 6 11 1 17 -2 13 -5z m-3852 -634 c-3 -5 -11 -10 -16 -10 -6 0 -7 5 -4 10 3
6 11 10 16 10 6 0 7 -4 4 -10z m795 -836 c0 -2 -7 -4 -15 -4 -8 0 -15 4 -15
10 0 5 7 7 15 4 8 -4 15 -8 15 -10z m4165 -414 c3 -5 1 -10 -4 -10 -6 0 -11 5
-11 10 0 6 2 10 4 10 3 0 8 -4 11 -10z m45 -10 c0 -5 -2 -10 -4 -10 -3 0 -8 5
-11 10 -3 6 -1 10 4 10 6 0 11 -4 11 -10z m-1195 -20 c3 -5 1 -10 -4 -10 -6 0
-11 5 -11 10 0 6 2 10 4 10 3 0 8 -4 11 -10z"/>
<path d="M6325 6240 c3 -5 10 -10 16 -10 5 0 9 5 9 10 0 6 -7 10 -16 10 -8 0
-12 -4 -9 -10z"/>
<path d="M12565 6220 c-3 -5 -1 -10 4 -10 6 0 11 5 11 10 0 6 -2 10 -4 10 -3
0 -8 -4 -11 -10z"/>
<path d="M6097 6023 c-13 -12 -7 -33 8 -33 8 0 15 6 15 14 0 8 6 17 13 19 6 3
3 6 -9 6 -11 1 -24 -2 -27 -6z"/>
<path d="M12702 5970 c0 -14 2 -19 5 -12 2 6 2 18 0 25 -3 6 -5 1 -5 -13z"/>
<path d="M6122 5895 c-11 -13 -9 -14 10 -12 12 2 24 9 26 15 5 17 -20 14 -36
-3z"/>
<path d="M7300 5890 c0 -5 5 -10 10 -10 6 0 10 5 10 10 0 6 -4 10 -10 10 -5 0
-10 -4 -10 -10z"/>
<path d="M12410 5849 c0 -18 2 -19 15 -9 8 7 15 16 15 21 0 5 -7 9 -15 9 -9 0
-15 -9 -15 -21z"/>
<path d="M6740 5780 c0 -5 5 -10 10 -10 6 0 10 5 10 10 0 6 -4 10 -10 10 -5 0
-10 -4 -10 -10z"/>
<path d="M6075 5640 c-3 -5 1 -10 9 -10 9 0 16 5 16 10 0 6 -4 10 -9 10 -6 0
-13 -4 -16 -10z"/>
<path d="M8090 5576 c0 -25 12 -46 26 -46 8 0 14 5 14 10 0 6 -7 10 -16 10
-11 0 -14 6 -9 20 4 11 2 20 -4 20 -6 0 -11 -6 -11 -14z"/>
<path d="M8173 5565 c-10 -23 -9 -25 12 -25 23 0 40 24 29 41 -10 17 -29 9
-41 -16z"/>
<path d="M7410 5540 c0 -5 5 -10 10 -10 6 0 10 5 10 10 0 6 -4 10 -10 10 -5 0
-10 -4 -10 -10z"/>
<path d="M8317 5543 c-4 -3 -7 -11 -7 -17 0 -6 5 -5 12 2 6 6 9 14 7 17 -3 3
-9 2 -12 -2z"/>
<path d="M7290 5524 c0 -8 5 -12 10 -9 6 4 8 11 5 16 -9 14 -15 11 -15 -7z"/>
<path d="M8156 5515 c7 -17 20 -20 28 -6 3 5 -1 12 -10 15 -22 9 -24 8 -18 -9z"/>
<path d="M8793 5423 c-18 -7 -16 -23 2 -23 8 0 15 7 15 15 0 8 -1 15 -2 14 -2
0 -9 -3 -15 -6z"/>
<path d="M7770 5399 c0 -5 5 -7 10 -4 6 3 10 8 10 11 0 2 -4 4 -10 4 -5 0 -10
-5 -10 -11z"/>
<path d="M8736 5402 c-7 -12 7 -28 31 -34 34 -9 36 6 3 25 -16 10 -31 14 -34
9z"/>
<path d="M8828 5394 c-13 -12 -9 -34 8 -52 15 -15 18 -14 30 3 8 10 14 28 14
39 -1 20 -2 20 -14 4 -16 -22 -24 -23 -28 -2 -2 9 -6 12 -10 8z"/>
<path d="M7643 5369 c4 -13 7 -30 7 -37 0 -7 4 -11 9 -8 11 7 2 54 -12 63 -6
4 -8 -2 -4 -18z"/>
<path d="M9565 5230 c-8 -13 4 -32 16 -25 12 8 12 35 0 35 -6 0 -13 -4 -16
-10z"/>
<path d="M8010 5200 c0 -5 5 -10 10 -10 6 0 10 5 10 10 0 6 -4 10 -10 10 -5 0
-10 -4 -10 -10z"/>
<path d="M9810 5200 c-12 -7 -12 -12 -3 -21 15 -15 26 -7 21 15 -2 11 -7 13
-18 6z"/>
<path d="M5565 5190 c-3 -5 -1 -10 4 -10 6 0 11 5 11 10 0 6 -2 10 -4 10 -3 0
-8 -4 -11 -10z"/>
<path d="M8010 5170 c0 -5 7 -10 16 -10 8 0 12 5 9 10 -3 6 -10 10 -16 10 -5
0 -9 -4 -9 -10z"/>
<path d="M8050 5170 c0 -5 5 -10 11 -10 5 0 7 5 4 10 -3 6 -8 10 -11 10 -2 0
-4 -4 -4 -10z"/>
<path d="M5935 5150 c-3 -5 -1 -10 4 -10 6 0 11 5 11 10 0 6 -2 10 -4 10 -3 0
-8 -4 -11 -10z"/>
<path d="M13022 5149 c2 -6 8 -10 13 -10 5 0 11 4 13 10 2 6 -4 11 -13 11 -9
0 -15 -5 -13 -11z"/>
<path d="M8060 5140 c0 -5 5 -10 10 -10 6 0 10 5 10 10 0 6 -4 10 -10 10 -5 0
-10 -4 -10 -10z"/>
<path d="M8250 5139 c0 -5 5 -7 10 -4 6 3 10 8 10 11 0 2 -4 4 -10 4 -5 0 -10
-5 -10 -11z"/>
<path d="M12996 5125 c4 -8 8 -15 10 -15 2 0 4 7 4 15 0 8 -4 15 -10 15 -5 0
-7 -7 -4 -15z"/>
<path d="M10574 5102 c-6 -4 -13 -15 -17 -24 -5 -13 -1 -18 14 -18 22 0 37 26
23 40 -5 5 -14 6 -20 2z"/>
<path d="M5786 5091 c-7 -10 18 -34 27 -25 7 8 -3 34 -13 34 -5 0 -11 -4 -14
-9z"/>
<path d="M10490 5024 c0 -11 5 -14 16 -10 9 3 22 6 30 6 8 0 14 5 14 10 0 6
-13 10 -30 10 -21 0 -30 -5 -30 -16z"/>
<path d="M9020 5020 c0 -5 5 -10 11 -10 5 0 7 5 4 10 -3 6 -8 10 -11 10 -2 0
-4 -4 -4 -10z"/>
<path d="M12713 5013 c-3 -10 -8 -21 -10 -25 -2 -5 0 -8 6 -8 16 0 33 38 21
45 -6 3 -13 -2 -17 -12z"/>
<path d="M5820 5010 c0 -5 5 -10 10 -10 6 0 10 5 10 10 0 6 -4 10 -10 10 -5 0
-10 -4 -10 -10z"/>
<path d="M8871 5006 c-8 -10 -9 -16 -1 -21 5 -3 13 1 16 10 9 22 -1 29 -15 11z"/>
<path d="M9071 4994 c0 -11 3 -14 6 -6 3 7 2 16 -1 19 -3 4 -6 -2 -5 -13z"/>
<path d="M9126 4952 c-3 -6 -1 -14 5 -17 14 -9 20 -2 10 14 -6 8 -11 9 -15 3z"/>
<path d="M11060 4945 c0 -9 6 -12 15 -9 8 4 12 10 9 15 -8 14 -24 10 -24 -6z"/>
<path d="M9090 4930 c0 -5 5 -10 11 -10 5 0 7 5 4 10 -3 6 -8 10 -11 10 -2 0
-4 -4 -4 -10z"/>
<path d="M9250 4915 c0 -8 5 -15 10 -15 6 0 10 7 10 15 0 8 -4 15 -10 15 -5 0
-10 -7 -10 -15z"/>
<path d="M13114 4917 c-3 -9 -12 -17 -20 -17 -8 0 -14 -7 -14 -15 0 -20 10
-19 40 5 20 15 22 22 13 31 -10 10 -14 9 -19 -4z"/>
<path d="M9502 4851 c4 -13 18 -16 19 -4 0 4 -5 9 -11 12 -7 2 -11 -2 -8 -8z"/>
<path d="M11360 4800 c0 -5 4 -10 9 -10 6 0 13 5 16 10 3 6 -1 10 -9 10 -9 0
-16 -4 -16 -10z"/>
<path d="M5680 4753 c0 -6 6 -16 14 -22 8 -7 12 -21 9 -34 -5 -21 -5 -21 13
-4 18 17 18 18 -9 44 -15 15 -27 23 -27 16z"/>
<path d="M10390 4695 c0 -8 4 -15 10 -15 5 0 7 7 4 15 -4 8 -8 15 -10 15 -2 0
-4 -7 -4 -15z"/>
<path d="M11660 4700 c0 -5 7 -10 16 -10 8 0 12 5 9 10 -3 6 -10 10 -16 10 -5
0 -9 -4 -9 -10z"/>
<path d="M10330 4696 c0 -2 9 -6 20 -9 11 -3 20 -1 20 4 0 5 -9 9 -20 9 -11 0
-20 -2 -20 -4z"/>
<path d="M5790 4540 c0 -5 5 -10 10 -10 6 0 10 5 10 10 0 6 -4 10 -10 10 -5 0
-10 -4 -10 -10z"/>
<path d="M5758 4505 c2 -14 8 -25 13 -25 5 0 9 11 9 25 0 14 -6 25 -14 25 -9
0 -12 -8 -8 -25z"/>
<path d="M11351 4434 c0 -11 3 -14 6 -6 3 7 2 16 -1 19 -3 4 -6 -2 -5 -13z"/>
<path d="M5770 4417 c0 -8 -7 -17 -15 -21 -8 -3 -15 -17 -15 -31 0 -15 4 -24
10 -20 6 3 10 15 10 26 0 10 7 19 15 19 17 0 20 25 5 35 -5 3 -10 0 -10 -8z"/>
<path d="M13257 4423 c-12 -11 -8 -23 8 -23 8 0 15 7 15 15 0 16 -12 20 -23 8z"/>
<path d="M11454 4399 c-3 -6 -1 -16 5 -22 8 -8 11 -5 11 11 0 24 -5 28 -16 11z"/>
<path d="M13227 4390 c3 -11 9 -20 13 -20 5 0 6 9 3 20 -3 11 -9 20 -13 20 -5
0 -6 -9 -3 -20z"/>
<path d="M11967 4366 c4 -17 12 -26 24 -26 27 0 19 44 -8 48 -17 3 -20 -1 -16
-22z"/>
<path d="M11470 4350 c0 -5 5 -10 11 -10 5 0 7 5 4 10 -3 6 -8 10 -11 10 -2 0
-4 -4 -4 -10z"/>
<path d="M13158 4296 c-26 -19 -22 -27 7 -14 14 6 25 15 25 20 0 12 -12 9 -32
-6z"/>
<path d="M5680 4290 c0 -5 7 -10 16 -10 8 0 12 5 9 10 -3 6 -10 10 -16 10 -5
0 -9 -4 -9 -10z"/>
<path d="M12945 4280 c3 -5 8 -10 11 -10 2 0 4 5 4 10 0 6 -5 10 -11 10 -5 0
-7 -4 -4 -10z"/>
<path d="M5639 4258 c9 -23 11 -31 11 -45 1 -10 29 39 30 50 0 5 -4 6 -9 2 -5
-3 -12 -1 -16 5 -12 20 -25 10 -16 -12z"/>
<path d="M12826 4245 c-3 -8 -1 -15 4 -15 6 0 10 7 10 15 0 8 -2 15 -4 15 -2
0 -6 -7 -10 -15z"/>
<path d="M13205 4232 c-22 -19 -22 -62 1 -62 8 0 15 -10 15 -22 1 -16 3 -18 6
-6 2 9 -3 28 -13 43 -16 24 -16 27 1 45 22 24 17 25 -10 2z"/>
<path d="M13220 4210 c0 -5 5 -10 10 -10 6 0 10 5 10 10 0 6 -4 10 -10 10 -5
0 -10 -4 -10 -10z"/>
<path d="M11795 4200 c3 -5 8 -10 11 -10 2 0 4 5 4 10 0 6 -5 10 -11 10 -5 0
-7 -4 -4 -10z"/>
<path d="M11804 4136 c-13 -10 -16 -18 -9 -25 7 -6 16 -5 29 5 13 9 17 17 10
24 -7 7 -17 5 -30 -4z"/>
<path d="M13220 4111 c0 -6 5 -13 10 -16 6 -3 10 1 10 9 0 9 -4 16 -10 16 -5
0 -10 -4 -10 -9z"/>
<path d="M12448 4093 c7 -3 16 -2 19 1 4 3 -2 6 -13 5 -11 0 -14 -3 -6 -6z"/>
<path d="M12530 3945 c0 -8 5 -15 10 -15 6 0 10 7 10 15 0 8 -4 15 -10 15 -5
0 -10 -7 -10 -15z"/>
<path d="M13265 3940 c-4 -6 -5 -12 -4 -13 2 -2 11 -8 21 -15 23 -18 31 2 9
22 -13 12 -21 14 -26 6z"/>
<path d="M13295 3860 c-3 -6 1 -7 9 -4 18 7 21 14 7 14 -6 0 -13 -4 -16 -10z"/>
<path d="M13385 3827 c-4 -10 -5 -21 -1 -24 10 -10 18 4 13 24 -4 17 -4 17
-12 0z"/>
<path d="M13360 3814 c0 -6 7 -19 15 -30 8 -10 14 -14 14 -9 0 6 -6 19 -14 29
-8 11 -15 15 -15 10z"/>
<path d="M12620 3580 c0 -11 5 -20 10 -20 6 0 10 9 10 20 0 11 -4 20 -10 20
-5 0 -10 -9 -10 -20z"/>
<path d="M13510 3419 c0 -5 5 -7 10 -4 6 3 10 8 10 11 0 2 -4 4 -10 4 -5 0
-10 -5 -10 -11z"/>
<path d="M13070 3401 c-7 -15 -7 -21 0 -21 12 0 25 28 17 36 -3 3 -10 -4 -17
-15z"/>
<path d="M5595 3390 c-3 -5 1 -10 9 -10 9 0 16 5 16 10 0 6 -4 10 -9 10 -6 0
-13 -4 -16 -10z"/>
<path d="M6335 3290 c-16 -7 -17 -9 -3 -9 9 -1 20 4 23 9 7 11 7 11 -20 0z"/>
<path d="M6610 3270 c0 -11 5 -20 10 -20 6 0 10 6 10 14 0 8 6 17 13 19 6 3 2
6 -10 6 -17 1 -23 -5 -23 -19z"/>
<path d="M12145 3270 c3 -5 8 -10 11 -10 2 0 4 5 4 10 0 6 -5 10 -11 10 -5 0
-7 -4 -4 -10z"/>
<path d="M6474 3195 c28 -24 36 -29 36 -22 0 11 -39 47 -51 47 -8 0 -1 -11 15
-25z"/>
<path d="M12020 3195 c0 -8 4 -15 10 -15 5 0 7 7 4 15 -4 8 -8 15 -10 15 -2 0
-4 -7 -4 -15z"/>
<path d="M7605 3140 c-3 -5 -2 -10 4 -10 5 0 13 5 16 10 3 6 2 10 -4 10 -5 0
-13 -4 -16 -10z"/>
<path d="M13145 3129 c-4 -6 -5 -12 -2 -15 2 -3 7 2 10 11 7 17 1 20 -8 4z"/>
<path d="M7756 3115 c-20 -21 -21 -34 -1 -31 23 3 35 20 26 34 -6 11 -11 10
-25 -3z"/>
<path d="M12415 3097 c-4 -10 -5 -21 -1 -24 10 -10 18 4 13 24 -4 17 -4 17
-12 0z"/>
<path d="M13620 3054 c0 -8 5 -12 10 -9 6 3 10 10 10 16 0 5 -4 9 -10 9 -5 0
-10 -7 -10 -16z"/>
<path d="M13180 3025 c0 -8 2 -15 4 -15 2 0 6 7 10 15 3 8 1 15 -4 15 -6 0
-10 -7 -10 -15z"/>
<path d="M6340 3000 c0 -5 5 -10 11 -10 5 0 7 5 4 10 -3 6 -8 10 -11 10 -2 0
-4 -4 -4 -10z"/>
<path d="M8478 3003 c7 -3 16 -2 19 1 4 3 -2 6 -13 5 -11 0 -14 -3 -6 -6z"/>
<path d="M6430 2990 c0 -5 4 -10 9 -10 6 0 13 5 16 10 3 6 -1 10 -9 10 -9 0
-16 -4 -16 -10z"/>
<path d="M11618 2983 c7 -3 16 -2 19 1 4 3 -2 6 -13 5 -11 0 -14 -3 -6 -6z"/>
<path d="M8750 2963 c-11 -16 -18 -19 -31 -12 -11 6 -20 5 -24 -1 -8 -13 3
-30 18 -30 21 1 60 37 55 51 -3 10 -8 8 -18 -8z"/>
<path d="M8650 2940 c0 -5 5 -10 11 -10 5 0 7 5 4 10 -3 6 -8 10 -11 10 -2 0
-4 -4 -4 -10z"/>
<path d="M8860 2935 c-24 -14 -24 -14 -4 -15 12 0 24 7 28 15 6 18 7 18 -24 0z"/>
<path d="M6940 2930 c0 -5 5 -10 10 -10 6 0 10 5 10 10 0 6 -4 10 -10 10 -5 0
-10 -4 -10 -10z"/>
<path d="M6405 2920 c-3 -5 -1 -10 4 -10 6 0 11 5 11 10 0 6 -2 10 -4 10 -3 0
-8 -4 -11 -10z"/>
<path d="M6446 2907 c-9 -33 -8 -37 10 -37 13 0 14 3 5 13 -7 10 -7 17 0 24 7
7 7 13 1 17 -5 3 -12 -4 -16 -17z"/>
<path d="M7084 2909 c0 -12 7 -24 14 -27 9 -3 13 3 10 19 -4 29 -26 36 -24 8z"/>
<path d="M7027 2914 c-6 -10 9 -42 16 -34 3 3 1 14 -3 24 -3 11 -9 15 -13 10z"/>
<path d="M9130 2892 c0 -14 11 -21 26 -15 21 8 17 23 -6 23 -11 0 -20 -4 -20
-8z"/>
<path d="M11310 2889 c0 -5 5 -7 10 -4 6 3 10 8 10 11 0 2 -4 4 -10 4 -5 0
-10 -5 -10 -11z"/>
<path d="M6940 2880 c0 -5 5 -10 10 -10 6 0 10 5 10 10 0 6 -4 10 -10 10 -5 0
-10 -4 -10 -10z"/>
<path d="M9037 2870 c-6 -22 0 -25 22 -11 7 5 10 14 7 20 -11 17 -23 13 -29
-9z"/>
<path d="M6290 2872 c0 -5 7 -13 16 -16 10 -4 14 -1 12 6 -5 15 -28 23 -28 10z"/>
<path d="M11318 2872 c-10 -2 -18 -10 -18 -18 0 -18 8 -18 27 1 18 18 15 23
-9 17z"/>
<path d="M5795 2861 c-3 -5 -1 -12 5 -16 5 -3 10 1 10 9 0 18 -6 21 -15 7z"/>
<path d="M6915 2850 c-16 -4 -22 -8 -13 -9 9 0 23 -4 31 -7 8 -3 17 2 20 10 7
17 7 17 -38 6z"/>
<path d="M9065 2840 c3 -5 10 -10 16 -10 5 0 9 5 9 10 0 6 -7 10 -16 10 -8 0
-12 -4 -9 -10z"/>
<path d="M12085 2820 c3 -5 8 -10 11 -10 2 0 4 5 4 10 0 6 -5 10 -11 10 -5 0
-7 -4 -4 -10z"/>
<path d="M6810 2809 c0 -5 5 -7 10 -4 6 3 10 8 10 11 0 2 -4 4 -10 4 -5 0 -10
-5 -10 -11z"/>
<path d="M7320 2790 c0 -5 5 -10 10 -10 6 0 10 5 10 10 0 6 -4 10 -10 10 -5 0
-10 -4 -10 -10z"/>
<path d="M13620 2764 c0 -9 5 -14 12 -12 18 6 21 28 4 28 -9 0 -16 -7 -16 -16z"/>
<path d="M9500 2745 c13 -14 26 -23 28 -20 7 7 -29 45 -41 45 -6 0 0 -11 13
-25z"/>
<path d="M7690 2720 c0 -5 5 -10 10 -10 6 0 10 5 10 10 0 6 -4 10 -10 10 -5 0
-10 -4 -10 -10z"/>
<path d="M7560 2680 c0 -5 5 -10 10 -10 6 0 10 5 10 10 0 6 -4 10 -10 10 -5 0
-10 -4 -10 -10z"/>
<path d="M7980 2686 c0 -2 8 -10 18 -17 15 -13 16 -12 3 4 -13 16 -21 21 -21
13z"/>
<path d="M11520 2640 c0 -5 5 -10 11 -10 5 0 7 5 4 10 -3 6 -8 10 -11 10 -2 0
-4 -4 -4 -10z"/>
<path d="M8230 2629 c0 -5 5 -7 10 -4 6 3 10 8 10 11 0 2 -4 4 -10 4 -5 0 -10
-5 -10 -11z"/>
<path d="M8955 2590 c3 -5 8 -10 11 -10 2 0 4 5 4 10 0 6 -5 10 -11 10 -5 0
-7 -4 -4 -10z"/>
<path d="M10390 2570 c0 -5 5 -10 10 -10 6 0 10 5 10 10 0 6 -4 10 -10 10 -5
0 -10 -4 -10 -10z"/>
<path d="M8450 2549 c0 -5 5 -7 10 -4 6 3 10 8 10 11 0 2 -4 4 -10 4 -5 0 -10
-5 -10 -11z"/>
<path d="M10430 2556 c0 -2 7 -6 15 -10 8 -3 15 -1 15 4 0 6 -7 10 -15 10 -8
0 -15 -2 -15 -4z"/>
<path d="M9330 2520 c0 -5 5 -10 10 -10 6 0 10 5 10 10 0 6 -4 10 -10 10 -5 0
-10 -4 -10 -10z"/>
<path d="M10497 2524 c-12 -13 -8 -42 8 -48 8 -3 15 -1 15 5 0 7 12 8 31 4 29
-7 30 -6 17 14 -9 15 -20 20 -35 16 -12 -3 -23 0 -25 6 -2 5 -7 7 -11 3z"/>
<path d="M8918 2503 c7 -3 16 -2 19 1 4 3 -2 6 -13 5 -11 0 -14 -3 -6 -6z"/>
<path d="M10355 2489 c-10 -15 3 -25 16 -12 7 7 7 13 1 17 -6 3 -14 1 -17 -5z"/>
<path d="M9470 2436 c0 -33 18 -42 38 -22 16 16 16 17 -2 10 -15 -6 -17 -4
-11 14 5 16 2 22 -9 22 -10 0 -16 -9 -16 -24z"/>
<path d="M9310 2441 l-35 -7 30 -6 c20 -4 35 -2 45 8 15 15 14 15 -40 5z"/>
<path d="M9585 2430 c-3 -5 -1 -10 4 -10 6 0 11 5 11 10 0 6 -2 10 -4 10 -3 0
-8 -4 -11 -10z"/>
<path d="M10968 2423 c7 -3 16 -2 19 1 4 3 -2 6 -13 5 -11 0 -14 -3 -6 -6z"/>
<path d="M10225 2389 c-10 -14 -1 -21 19 -13 9 3 13 10 10 15 -7 12 -21 11
-29 -2z"/>
<path d="M9847 2376 c-4 -10 -1 -13 9 -9 7 3 14 9 14 14 0 14 -17 10 -23 -5z"/>
<path d="M13850 2325 c0 -8 5 -15 10 -15 6 0 10 7 10 15 0 8 -4 15 -10 15 -5
0 -10 -7 -10 -15z"/>
<path d="M13839 2228 c4 -13 6 -29 4 -35 -3 -7 0 -13 5 -13 15 0 22 54 9 62
-21 13 -27 9 -18 -14z"/>
<path d="M13405 2151 c-3 -5 -1 -12 5 -16 5 -3 10 1 10 9 0 18 -6 21 -15 7z"/>
<path d="M14047 1803 c-4 -3 -7 -11 -7 -17 0 -6 5 -5 12 2 6 6 9 14 7 17 -3 3
-9 2 -12 -2z"/>
<path d="M13910 1736 c0 -2 7 -6 15 -10 8 -3 15 -1 15 4 0 6 -7 10 -15 10 -8
0 -15 -2 -15 -4z"/>
<path d="M13735 1590 c-3 -5 -2 -10 4 -10 5 0 13 5 16 10 3 6 2 10 -4 10 -5 0
-13 -4 -16 -10z"/>
<path d="M13810 1350 c0 -5 7 -10 15 -10 8 0 15 5 15 10 0 6 -7 10 -15 10 -8
0 -15 -4 -15 -10z"/>
<path d="M13845 1307 c-8 -32 0 -46 17 -29 8 8 8 18 1 34 l-11 23 -7 -28z"/>
</g>
</svg>
